STARTFONT 2.1
COMMENT
COMMENT Converted from OpenType font "galaxian.ttf" by "bdf 3.0".
COMMENT
FONT -FreeType-GF Galaxian-Medium-R-Normal--66-480-100-100-P-216-ISO10646-1
SIZE 48 100 100
FONTBOUNDINGBOX 58 67 0 -9
STARTPROPERTIES 19
FOUNDRY "FreeType"
FAMILY_NAME "GF Galaxian"
WEIGHT_NAME "Medium"
SLANT "R"
SETWIDTH_NAME "Normal"
ADD_STYLE_NAME ""
PIXEL_SIZE 66
POINT_SIZE 480
RESOLUTION_X 100
RESOLUTION_Y 100
SPACING "P"
AVERAGE_WIDTH 216
CHARSET_REGISTRY "ISO10646"
CHARSET_ENCODING "1"
FONT_ASCENT 58
FONT_DESCENT 8
COPYRIGHT "(C) NAMCO"
_OTF_FONTFILE "galaxian.ttf"
_OTF_PSNAME "GF Galaxian"
ENDPROPERTIES
CHARS 219
STARTCHAR 0020
ENCODING 32
SWIDTH 975 0
DWIDTH 65 0
BBX 0 0 0 0
BITMAP
ENDCHAR
STARTCHAR 0021
ENCODING 33
SWIDTH 975 0
DWIDTH 65 0
BBX 49 58 0 0
BITMAP
000000007FFF80
000000007FFF80
000000007FFF80
000000007FFF80
000000007FFF80
000000007FFF80
000000007FFF80
000000007FFF80
000000FFFFFF80
000000FFFFFF80
000000FFFFFF80
000000FFFFFF80
000000FFFFFF80
000000FFFFFF80
000000FFFFFF80
000000FFFFFF80
000000FFFFFF80
000000FFFF0000
000000FFFF0000
000000FFFF0000
000000FFFF0000
000000FFFF0000
000000FFFF0000
000000FFFF0000
000000FFFF0000
0000FFFF800000
0000FFFF800000
0000FFFF800000
0000FFFF800000
0000FFFF800000
0000FFFF800000
0000FFFF800000
0000FFFF800000
0000FF00000000
0000FF00000000
0000FF00000000
0000FF00000000
0000FF00000000
0000FF00000000
0000FF00000000
0000FF00000000
0000FF00000000
00000000000000
00000000000000
00000000000000
00000000000000
00000000000000
00000000000000
00000000000000
00000000000000
FF000000000000
FF000000000000
FF000000000000
FF000000000000
FF000000000000
FF000000000000
FF000000000000
FF000000000000
ENDCHAR
STARTCHAR 0022
ENCODING 34
SWIDTH 975 0
DWIDTH 65 0
BBX 49 25 8 33
BITMAP
00FFFF007FFF80
00FFFF007FFF80
00FFFF007FFF80
00FFFF007FFF80
00FFFF007FFF80
00FFFF007FFF80
00FFFF007FFF80
00FFFF007FFF80
00FFFF007FFF80
00FFFF007FFF80
00FFFF007FFF80
00FFFF007FFF80
00FFFF007FFF80
00FFFF007FFF80
00FFFF007FFF80
00FFFF007FFF80
00FFFF007FFF80
FFFF00FFFF8000
FFFF00FFFF8000
FFFF00FFFF8000
FFFF00FFFF8000
FFFF00FFFF8000
FFFF00FFFF8000
FFFF00FFFF8000
FFFF00FFFF8000
ENDCHAR
STARTCHAR 0023
ENCODING 35
SWIDTH 975 0
DWIDTH 65 0
BBX 57 58 0 0
BITMAP
00FFFF00FFFF8000
00FFFF00FFFF8000
00FFFF00FFFF8000
00FFFF00FFFF8000
00FFFF00FFFF8000
00FFFF00FFFF8000
00FFFF00FFFF8000
00FFFF00FFFF8000
00FFFF00FFFF8000
00FFFF00FFFF8000
00FFFF00FFFF8000
00FFFF00FFFF8000
00FFFF00FFFF8000
00FFFF00FFFF8000
00FFFF00FFFF8000
00FFFF00FFFF8000
00FFFF00FFFF8000
FFFFFFFFFFFFFF80
FFFFFFFFFFFFFF80
FFFFFFFFFFFFFF80
FFFFFFFFFFFFFF80
FFFFFFFFFFFFFF80
FFFFFFFFFFFFFF80
FFFFFFFFFFFFFF80
FFFFFFFFFFFFFF80
00FFFF00FFFF8000
00FFFF00FFFF8000
00FFFF00FFFF8000
00FFFF00FFFF8000
00FFFF00FFFF8000
00FFFF00FFFF8000
00FFFF00FFFF8000
00FFFF00FFFF8000
FFFFFFFFFFFFFF80
FFFFFFFFFFFFFF80
FFFFFFFFFFFFFF80
FFFFFFFFFFFFFF80
FFFFFFFFFFFFFF80
FFFFFFFFFFFFFF80
FFFFFFFFFFFFFF80
FFFFFFFFFFFFFF80
00FFFF00FFFF8000
00FFFF00FFFF8000
00FFFF00FFFF8000
00FFFF00FFFF8000
00FFFF00FFFF8000
00FFFF00FFFF8000
00FFFF00FFFF8000
00FFFF00FFFF8000
00FFFF00FFFF8000
00FFFF00FFFF8000
00FFFF00FFFF8000
00FFFF00FFFF8000
00FFFF00FFFF8000
00FFFF00FFFF8000
00FFFF00FFFF8000
00FFFF00FFFF8000
00FFFF00FFFF8000
ENDCHAR
STARTCHAR 0024
ENCODING 36
SWIDTH 990 0
DWIDTH 66 0
BBX 58 58 0 0
BITMAP
0000007F80000000
0000007F80000000
0000007F80000000
0000007F80000000
0000007F80000000
0000007F80000000
0000007F80000000
0000007F80000000
0000007F80000000
00FFFFFFFFFFFFC0
00FFFFFFFFFFFFC0
00FFFFFFFFFFFFC0
00FFFFFFFFFFFFC0
00FFFFFFFFFFFFC0
00FFFFFFFFFFFFC0
00FFFFFFFFFFFFC0
00FFFFFFFFFFFFC0
FF00007F80000000
FF00007F80000000
FF00007F80000000
FF00007F80000000
FF00007F80000000
FF00007F80000000
FF00007F80000000
FF00007F80000000
00FFFFFFFFFFC000
00FFFFFFFFFFC000
00FFFFFFFFFFC000
00FFFFFFFFFFC000
00FFFFFFFFFFC000
00FFFFFFFFFFC000
00FFFFFFFFFFC000
00FFFFFFFFFFC000
0000007F80003FC0
0000007F80003FC0
0000007F80003FC0
0000007F80003FC0
0000007F80003FC0
0000007F80003FC0
0000007F80003FC0
0000007F80003FC0
0000007F80003FC0
FFFFFFFFFFFFC000
FFFFFFFFFFFFC000
FFFFFFFFFFFFC000
FFFFFFFFFFFFC000
FFFFFFFFFFFFC000
FFFFFFFFFFFFC000
FFFFFFFFFFFFC000
FFFFFFFFFFFFC000
0000007F80000000
0000007F80000000
0000007F80000000
0000007F80000000
0000007F80000000
0000007F80000000
0000007F80000000
0000007F80000000
ENDCHAR
STARTCHAR 0025
ENCODING 37
SWIDTH 975 0
DWIDTH 65 0
BBX 57 58 0 0
BITMAP
FFFFFF8000007F80
FFFFFF8000007F80
FFFFFF8000007F80
FFFFFF8000007F80
FFFFFF8000007F80
FFFFFF8000007F80
FFFFFF8000007F80
FFFFFF8000007F80
FF00FF80007F8000
FF00FF80007F8000
FF00FF80007F8000
FF00FF80007F8000
FF00FF80007F8000
FF00FF80007F8000
FF00FF80007F8000
FF00FF80007F8000
FF00FF80007F8000
FFFF00007F800000
FFFF00007F800000
FFFF00007F800000
FFFF00007F800000
FFFF00007F800000
FFFF00007F800000
FFFF00007F800000
FFFF00007F800000
0000007F80000000
0000007F80000000
0000007F80000000
0000007F80000000
0000007F80000000
0000007F80000000
0000007F80000000
0000007F80000000
0000FF80007FFF80
0000FF80007FFF80
0000FF80007FFF80
0000FF80007FFF80
0000FF80007FFF80
0000FF80007FFF80
0000FF80007FFF80
0000FF80007FFF80
00FF00007F807F80
00FF00007F807F80
00FF00007F807F80
00FF00007F807F80
00FF00007F807F80
00FF00007F807F80
00FF00007F807F80
00FF00007F807F80
00FF00007F807F80
FF0000007FFFFF80
FF0000007FFFFF80
FF0000007FFFFF80
FF0000007FFFFF80
FF0000007FFFFF80
FF0000007FFFFF80
FF0000007FFFFF80
FF0000007FFFFF80
ENDCHAR
STARTCHAR 0026
ENCODING 38
SWIDTH 990 0
DWIDTH 66 0
BBX 57 58 0 0
BITMAP
00FFFF8000000000
00FFFF8000000000
00FFFF8000000000
00FFFF8000000000
00FFFF8000000000
00FFFF8000000000
00FFFF8000000000
00FFFF8000000000
FF00007F80000000
FF00007F80000000
FF00007F80000000
FF00007F80000000
FF00007F80000000
FF00007F80000000
FF00007F80000000
FF00007F80000000
FF00FFFF80000000
FF00FFFF80000000
FF00FFFF80000000
FF00FFFF80000000
FF00FFFF80000000
FF00FFFF80000000
FF00FFFF80000000
FF00FFFF80000000
FF00FFFF80000000
00FFFF80007FFF80
00FFFF80007FFF80
00FFFF80007FFF80
00FFFF80007FFF80
00FFFF80007FFF80
00FFFF80007FFF80
00FFFF80007FFF80
00FFFF80007FFF80
FFFF007F807F8000
FFFF007F807F8000
FFFF007F807F8000
FFFF007F807F8000
FFFF007F807F8000
FFFF007F807F8000
FFFF007F807F8000
FFFF007F807F8000
FF0000007F800000
FF0000007F800000
FF0000007F800000
FF0000007F800000
FF0000007F800000
FF0000007F800000
FF0000007F800000
FF0000007F800000
FF0000007F800000
00FFFFFF807FFF80
00FFFFFF807FFF80
00FFFFFF807FFF80
00FFFFFF807FFF80
00FFFFFF807FFF80
00FFFFFF807FFF80
00FFFFFF807FFF80
00FFFFFF807FFF80
ENDCHAR
STARTCHAR 0027
ENCODING 39
SWIDTH 975 0
DWIDTH 65 0
BBX 16 33 16 24
BITMAP
FFFF
FFFF
FFFF
FFFF
FFFF
FFFF
FFFF
FFFF
FFFF
FFFF
FFFF
FFFF
FFFF
FFFF
FFFF
FFFF
FFFF
00FF
00FF
00FF
00FF
00FF
00FF
00FF
00FF
FF00
FF00
FF00
FF00
FF00
FF00
FF00
FF00
ENDCHAR
STARTCHAR 0028
ENCODING 40
SWIDTH 975 0
DWIDTH 65 0
BBX 24 58 16 0
BITMAP
0000FF
0000FF
0000FF
0000FF
0000FF
0000FF
0000FF
0000FF
00FF00
00FF00
00FF00
00FF00
00FF00
00FF00
00FF00
00FF00
FF0000
FF0000
FF0000
FF0000
FF0000
FF0000
FF0000
FF0000
FF0000
FF0000
FF0000
FF0000
FF0000
FF0000
FF0000
FF0000
FF0000
FF0000
FF0000
FF0000
FF0000
FF0000
FF0000
FF0000
FF0000
00FF00
00FF00
00FF00
00FF00
00FF00
00FF00
00FF00
00FF00
00FF00
0000FF
0000FF
0000FF
0000FF
0000FF
0000FF
0000FF
0000FF
ENDCHAR
STARTCHAR 0029
ENCODING 41
SWIDTH 975 0
DWIDTH 65 0
BBX 24 58 16 0
BITMAP
FF0000
FF0000
FF0000
FF0000
FF0000
FF0000
FF0000
FF0000
00FF00
00FF00
00FF00
00FF00
00FF00
00FF00
00FF00
00FF00
0000FF
0000FF
0000FF
0000FF
0000FF
0000FF
0000FF
0000FF
0000FF
0000FF
0000FF
0000FF
0000FF
0000FF
0000FF
0000FF
0000FF
0000FF
0000FF
0000FF
0000FF
0000FF
0000FF
0000FF
0000FF
00FF00
00FF00
00FF00
00FF00
00FF00
00FF00
00FF00
00FF00
00FF00
FF0000
FF0000
FF0000
FF0000
FF0000
FF0000
FF0000
FF0000
ENDCHAR
STARTCHAR 002A
ENCODING 42
SWIDTH 960 0
DWIDTH 64 0
BBX 40 41 8 8
BITMAP
0000FF0000
0000FF0000
0000FF0000
0000FF0000
0000FF0000
0000FF0000
0000FF0000
0000FF0000
FF00FF00FF
FF00FF00FF
FF00FF00FF
FF00FF00FF
FF00FF00FF
FF00FF00FF
FF00FF00FF
FF00FF00FF
00FFFFFF00
00FFFFFF00
00FFFFFF00
00FFFFFF00
00FFFFFF00
00FFFFFF00
00FFFFFF00
00FFFFFF00
00FFFFFF00
FF00FF00FF
FF00FF00FF
FF00FF00FF
FF00FF00FF
FF00FF00FF
FF00FF00FF
FF00FF00FF
FF00FF00FF
0000FF0000
0000FF0000
0000FF0000
0000FF0000
0000FF0000
0000FF0000
0000FF0000
0000FF0000
ENDCHAR
STARTCHAR 002B
ENCODING 43
SWIDTH 975 0
DWIDTH 65 0
BBX 41 41 8 0
BITMAP
0000FF000000
0000FF000000
0000FF000000
0000FF000000
0000FF000000
0000FF000000
0000FF000000
0000FF000000
0000FF000000
0000FF000000
0000FF000000
0000FF000000
0000FF000000
0000FF000000
0000FF000000
0000FF000000
FFFFFFFFFF80
FFFFFFFFFF80
FFFFFFFFFF80
FFFFFFFFFF80
FFFFFFFFFF80
FFFFFFFFFF80
FFFFFFFFFF80
FFFFFFFFFF80
0000FF000000
0000FF000000
0000FF000000
0000FF000000
0000FF000000
0000FF000000
0000FF000000
0000FF000000
0000FF000000
0000FF000000
0000FF000000
0000FF000000
0000FF000000
0000FF000000
0000FF000000
0000FF000000
0000FF000000
ENDCHAR
STARTCHAR 002C
ENCODING 44
SWIDTH 975 0
DWIDTH 65 0
BBX 16 33 8 -8
BITMAP
FFFF
FFFF
FFFF
FFFF
FFFF
FFFF
FFFF
FFFF
FFFF
FFFF
FFFF
FFFF
FFFF
FFFF
FFFF
FFFF
FFFF
00FF
00FF
00FF
00FF
00FF
00FF
00FF
00FF
FF00
FF00
FF00
FF00
FF00
FF00
FF00
FF00
ENDCHAR
STARTCHAR 002D
ENCODING 45
SWIDTH 975 0
DWIDTH 65 0
BBX 41 8 8 26
BITMAP
FFFFFFFFFF80
FFFFFFFFFF80
FFFFFFFFFF80
FFFFFFFFFF80
FFFFFFFFFF80
FFFFFFFFFF80
FFFFFFFFFF80
FFFFFFFFFF80
ENDCHAR
STARTCHAR 002E
ENCODING 46
SWIDTH 975 0
DWIDTH 65 0
BBX 16 17 16 0
BITMAP
FFFF
FFFF
FFFF
FFFF
FFFF
FFFF
FFFF
FFFF
FFFF
FFFF
FFFF
FFFF
FFFF
FFFF
FFFF
FFFF
FFFF
ENDCHAR
STARTCHAR 002F
ENCODING 47
SWIDTH 960 0
DWIDTH 64 0
BBX 40 41 8 9
BITMAP
00000000FF
00000000FF
00000000FF
00000000FF
00000000FF
00000000FF
00000000FF
00000000FF
0000007F00
0000007F00
0000007F00
0000007F00
0000007F00
0000007F00
0000007F00
0000007F00
0000FF8000
0000FF8000
0000FF8000
0000FF8000
0000FF8000
0000FF8000
0000FF8000
0000FF8000
00FF000000
00FF000000
00FF000000
00FF000000
00FF000000
00FF000000
00FF000000
00FF000000
00FF000000
FF00000000
FF00000000
FF00000000
FF00000000
FF00000000
FF00000000
FF00000000
FF00000000
ENDCHAR
STARTCHAR 0030
ENCODING 48
SWIDTH 975 0
DWIDTH 65 0
BBX 57 58 0 0
BITMAP
0000FFFFFF800000
0000FFFFFF800000
0000FFFFFF800000
0000FFFFFF800000
0000FFFFFF800000
0000FFFFFF800000
0000FFFFFF800000
0000FFFFFF800000
00FF00007FFF8000
00FF00007FFF8000
00FF00007FFF8000
00FF00007FFF8000
00FF00007FFF8000
00FF00007FFF8000
00FF00007FFF8000
00FF00007FFF8000
00FF00007FFF8000
FFFF0000007FFF80
FFFF0000007FFF80
FFFF0000007FFF80
FFFF0000007FFF80
FFFF0000007FFF80
FFFF0000007FFF80
FFFF0000007FFF80
FFFF0000007FFF80
FFFF0000007FFF80
FFFF0000007FFF80
FFFF0000007FFF80
FFFF0000007FFF80
FFFF0000007FFF80
FFFF0000007FFF80
FFFF0000007FFF80
FFFF0000007FFF80
FFFF0000007FFF80
FFFF0000007FFF80
FFFF0000007FFF80
FFFF0000007FFF80
FFFF0000007FFF80
FFFF0000007FFF80
FFFF0000007FFF80
FFFF0000007FFF80
FFFF0000007FFF80
00FFFF00007F8000
00FFFF00007F8000
00FFFF00007F8000
00FFFF00007F8000
00FFFF00007F8000
00FFFF00007F8000
00FFFF00007F8000
00FFFF00007F8000
0000FFFFFF800000
0000FFFFFF800000
0000FFFFFF800000
0000FFFFFF800000
0000FFFFFF800000
0000FFFFFF800000
0000FFFFFF800000
0000FFFFFF800000
ENDCHAR
STARTCHAR 0031
ENCODING 49
SWIDTH 975 0
DWIDTH 65 0
BBX 49 58 8 0
BITMAP
00007FFF800000
00007FFF800000
00007FFF800000
00007FFF800000
00007FFF800000
00007FFF800000
00007FFF800000
00007FFF800000
00FFFFFF800000
00FFFFFF800000
00FFFFFF800000
00FFFFFF800000
00FFFFFF800000
00FFFFFF800000
00FFFFFF800000
00FFFFFF800000
00007FFF800000
00007FFF800000
00007FFF800000
00007FFF800000
00007FFF800000
00007FFF800000
00007FFF800000
00007FFF800000
00007FFF800000
00007FFF800000
00007FFF800000
00007FFF800000
00007FFF800000
00007FFF800000
00007FFF800000
00007FFF800000
00007FFF800000
00007FFF800000
00007FFF800000
00007FFF800000
00007FFF800000
00007FFF800000
00007FFF800000
00007FFF800000
00007FFF800000
00007FFF800000
00007FFF800000
00007FFF800000
00007FFF800000
00007FFF800000
00007FFF800000
00007FFF800000
00007FFF800000
00007FFF800000
FFFFFFFFFFFF80
FFFFFFFFFFFF80
FFFFFFFFFFFF80
FFFFFFFFFFFF80
FFFFFFFFFFFF80
FFFFFFFFFFFF80
FFFFFFFFFFFF80
FFFFFFFFFFFF80
ENDCHAR
STARTCHAR 0032
ENCODING 50
SWIDTH 990 0
DWIDTH 66 0
BBX 57 58 0 0
BITMAP
00FFFFFFFFFF8000
00FFFFFFFFFF8000
00FFFFFFFFFF8000
00FFFFFFFFFF8000
00FFFFFFFFFF8000
00FFFFFFFFFF8000
00FFFFFFFFFF8000
00FFFFFFFFFF8000
FFFF0000007FFF80
FFFF0000007FFF80
FFFF0000007FFF80
FFFF0000007FFF80
FFFF0000007FFF80
FFFF0000007FFF80
FFFF0000007FFF80
FFFF0000007FFF80
000000007FFFFF80
000000007FFFFF80
000000007FFFFF80
000000007FFFFF80
000000007FFFFF80
000000007FFFFF80
000000007FFFFF80
000000007FFFFF80
000000007FFFFF80
0000FFFFFFFF8000
0000FFFFFFFF8000
0000FFFFFFFF8000
0000FFFFFFFF8000
0000FFFFFFFF8000
0000FFFFFFFF8000
0000FFFFFFFF8000
0000FFFFFFFF8000
00FFFFFFFF800000
00FFFFFFFF800000
00FFFFFFFF800000
00FFFFFFFF800000
00FFFFFFFF800000
00FFFFFFFF800000
00FFFFFFFF800000
00FFFFFFFF800000
00FFFFFFFF800000
FFFFFF8000000000
FFFFFF8000000000
FFFFFF8000000000
FFFFFF8000000000
FFFFFF8000000000
FFFFFF8000000000
FFFFFF8000000000
FFFFFF8000000000
FFFFFFFFFFFFFF80
FFFFFFFFFFFFFF80
FFFFFFFFFFFFFF80
FFFFFFFFFFFFFF80
FFFFFFFFFFFFFF80
FFFFFFFFFFFFFF80
FFFFFFFFFFFFFF80
FFFFFFFFFFFFFF80
ENDCHAR
STARTCHAR 0033
ENCODING 51
SWIDTH 990 0
DWIDTH 66 0
BBX 57 58 0 0
BITMAP
00FFFFFFFFFFFF80
00FFFFFFFFFFFF80
00FFFFFFFFFFFF80
00FFFFFFFFFFFF80
00FFFFFFFFFFFF80
00FFFFFFFFFFFF80
00FFFFFFFFFFFF80
00FFFFFFFFFFFF80
000000007FFF8000
000000007FFF8000
000000007FFF8000
000000007FFF8000
000000007FFF8000
000000007FFF8000
000000007FFF8000
000000007FFF8000
000000007FFF8000
0000007FFF800000
0000007FFF800000
0000007FFF800000
0000007FFF800000
0000007FFF800000
0000007FFF800000
0000007FFF800000
0000007FFF800000
0000FFFFFFFF8000
0000FFFFFFFF8000
0000FFFFFFFF8000
0000FFFFFFFF8000
0000FFFFFFFF8000
0000FFFFFFFF8000
0000FFFFFFFF8000
0000FFFFFFFF8000
00000000007FFF80
00000000007FFF80
00000000007FFF80
00000000007FFF80
00000000007FFF80
00000000007FFF80
00000000007FFF80
00000000007FFF80
FFFF0000007FFF80
FFFF0000007FFF80
FFFF0000007FFF80
FFFF0000007FFF80
FFFF0000007FFF80
FFFF0000007FFF80
FFFF0000007FFF80
FFFF0000007FFF80
FFFF0000007FFF80
00FFFFFFFFFF8000
00FFFFFFFFFF8000
00FFFFFFFFFF8000
00FFFFFFFFFF8000
00FFFFFFFFFF8000
00FFFFFFFFFF8000
00FFFFFFFFFF8000
00FFFFFFFFFF8000
ENDCHAR
STARTCHAR 0034
ENCODING 52
SWIDTH 975 0
DWIDTH 65 0
BBX 57 58 0 0
BITMAP
000000FFFFFF8000
000000FFFFFF8000
000000FFFFFF8000
000000FFFFFF8000
000000FFFFFF8000
000000FFFFFF8000
000000FFFFFF8000
000000FFFFFF8000
0000FFFFFFFF8000
0000FFFFFFFF8000
0000FFFFFFFF8000
0000FFFFFFFF8000
0000FFFFFFFF8000
0000FFFFFFFF8000
0000FFFFFFFF8000
0000FFFFFFFF8000
0000FFFFFFFF8000
00FFFF007FFF8000
00FFFF007FFF8000
00FFFF007FFF8000
00FFFF007FFF8000
00FFFF007FFF8000
00FFFF007FFF8000
00FFFF007FFF8000
00FFFF007FFF8000
FFFF00007FFF8000
FFFF00007FFF8000
FFFF00007FFF8000
FFFF00007FFF8000
FFFF00007FFF8000
FFFF00007FFF8000
FFFF00007FFF8000
FFFF00007FFF8000
FFFFFFFFFFFFFF80
FFFFFFFFFFFFFF80
FFFFFFFFFFFFFF80
FFFFFFFFFFFFFF80
FFFFFFFFFFFFFF80
FFFFFFFFFFFFFF80
FFFFFFFFFFFFFF80
FFFFFFFFFFFFFF80
000000007FFF8000
000000007FFF8000
000000007FFF8000
000000007FFF8000
000000007FFF8000
000000007FFF8000
000000007FFF8000
000000007FFF8000
000000007FFF8000
000000007FFF8000
000000007FFF8000
000000007FFF8000
000000007FFF8000
000000007FFF8000
000000007FFF8000
000000007FFF8000
000000007FFF8000
ENDCHAR
STARTCHAR 0035
ENCODING 53
SWIDTH 990 0
DWIDTH 66 0
BBX 57 58 0 0
BITMAP
FFFFFFFFFFFF8000
FFFFFFFFFFFF8000
FFFFFFFFFFFF8000
FFFFFFFFFFFF8000
FFFFFFFFFFFF8000
FFFFFFFFFFFF8000
FFFFFFFFFFFF8000
FFFFFFFFFFFF8000
FFFF000000000000
FFFF000000000000
FFFF000000000000
FFFF000000000000
FFFF000000000000
FFFF000000000000
FFFF000000000000
FFFF000000000000
FFFF000000000000
FFFFFFFFFFFF8000
FFFFFFFFFFFF8000
FFFFFFFFFFFF8000
FFFFFFFFFFFF8000
FFFFFFFFFFFF8000
FFFFFFFFFFFF8000
FFFFFFFFFFFF8000
FFFFFFFFFFFF8000
00000000007FFF80
00000000007FFF80
00000000007FFF80
00000000007FFF80
00000000007FFF80
00000000007FFF80
00000000007FFF80
00000000007FFF80
00000000007FFF80
00000000007FFF80
00000000007FFF80
00000000007FFF80
00000000007FFF80
00000000007FFF80
00000000007FFF80
00000000007FFF80
FFFF0000007FFF80
FFFF0000007FFF80
FFFF0000007FFF80
FFFF0000007FFF80
FFFF0000007FFF80
FFFF0000007FFF80
FFFF0000007FFF80
FFFF0000007FFF80
FFFF0000007FFF80
00FFFFFFFFFF8000
00FFFFFFFFFF8000
00FFFFFFFFFF8000
00FFFFFFFFFF8000
00FFFFFFFFFF8000
00FFFFFFFFFF8000
00FFFFFFFFFF8000
00FFFFFFFFFF8000
ENDCHAR
STARTCHAR 0036
ENCODING 54
SWIDTH 990 0
DWIDTH 66 0
BBX 57 58 0 0
BITMAP
0000FFFFFFFF8000
0000FFFFFFFF8000
0000FFFFFFFF8000
0000FFFFFFFF8000
0000FFFFFFFF8000
0000FFFFFFFF8000
0000FFFFFFFF8000
0000FFFFFFFF8000
00FFFF0000000000
00FFFF0000000000
00FFFF0000000000
00FFFF0000000000
00FFFF0000000000
00FFFF0000000000
00FFFF0000000000
00FFFF0000000000
00FFFF0000000000
FFFF000000000000
FFFF000000000000
FFFF000000000000
FFFF000000000000
FFFF000000000000
FFFF000000000000
FFFF000000000000
FFFF000000000000
FFFFFFFFFFFF8000
FFFFFFFFFFFF8000
FFFFFFFFFFFF8000
FFFFFFFFFFFF8000
FFFFFFFFFFFF8000
FFFFFFFFFFFF8000
FFFFFFFFFFFF8000
FFFFFFFFFFFF8000
FFFF0000007FFF80
FFFF0000007FFF80
FFFF0000007FFF80
FFFF0000007FFF80
FFFF0000007FFF80
FFFF0000007FFF80
FFFF0000007FFF80
FFFF0000007FFF80
FFFF0000007FFF80
FFFF0000007FFF80
FFFF0000007FFF80
FFFF0000007FFF80
FFFF0000007FFF80
FFFF0000007FFF80
FFFF0000007FFF80
FFFF0000007FFF80
FFFF0000007FFF80
00FFFFFFFFFF8000
00FFFFFFFFFF8000
00FFFFFFFFFF8000
00FFFFFFFFFF8000
00FFFFFFFFFF8000
00FFFFFFFFFF8000
00FFFFFFFFFF8000
00FFFFFFFFFF8000
ENDCHAR
STARTCHAR 0037
ENCODING 55
SWIDTH 990 0
DWIDTH 66 0
BBX 57 58 0 0
BITMAP
FFFFFFFFFFFFFF80
FFFFFFFFFFFFFF80
FFFFFFFFFFFFFF80
FFFFFFFFFFFFFF80
FFFFFFFFFFFFFF80
FFFFFFFFFFFFFF80
FFFFFFFFFFFFFF80
FFFFFFFFFFFFFF80
FFFF8000007FFF80
FFFF8000007FFF80
FFFF8000007FFF80
FFFF8000007FFF80
FFFF8000007FFF80
FFFF8000007FFF80
FFFF8000007FFF80
FFFF8000007FFF80
000000007FFF8000
000000007FFF8000
000000007FFF8000
000000007FFF8000
000000007FFF8000
000000007FFF8000
000000007FFF8000
000000007FFF8000
000000007FFF8000
0000007FFF800000
0000007FFF800000
0000007FFF800000
0000007FFF800000
0000007FFF800000
0000007FFF800000
0000007FFF800000
0000007FFF800000
00007FFF80000000
00007FFF80000000
00007FFF80000000
00007FFF80000000
00007FFF80000000
00007FFF80000000
00007FFF80000000
00007FFF80000000
00007FFF80000000
00007FFF80000000
00007FFF80000000
00007FFF80000000
00007FFF80000000
00007FFF80000000
00007FFF80000000
00007FFF80000000
00007FFF80000000
00007FFF80000000
00007FFF80000000
00007FFF80000000
00007FFF80000000
00007FFF80000000
00007FFF80000000
00007FFF80000000
00007FFF80000000
ENDCHAR
STARTCHAR 0038
ENCODING 56
SWIDTH 990 0
DWIDTH 66 0
BBX 57 58 0 0
BITMAP
00FFFFFFFF800000
00FFFFFFFF800000
00FFFFFFFF800000
00FFFFFFFF800000
00FFFFFFFF800000
00FFFFFFFF800000
00FFFFFFFF800000
00FFFFFFFF800000
FFFF0000007F8000
FFFF0000007F8000
FFFF0000007F8000
FFFF0000007F8000
FFFF0000007F8000
FFFF0000007F8000
FFFF0000007F8000
FFFF0000007F8000
FFFFFF80007F8000
FFFFFF80007F8000
FFFFFF80007F8000
FFFFFF80007F8000
FFFFFF80007F8000
FFFFFF80007F8000
FFFFFF80007F8000
FFFFFF80007F8000
FFFFFF80007F8000
00FFFFFFFF800000
00FFFFFFFF800000
00FFFFFFFF800000
00FFFFFFFF800000
00FFFFFFFF800000
00FFFFFFFF800000
00FFFFFFFF800000
00FFFFFFFF800000
FF0000FFFFFFFF80
FF0000FFFFFFFF80
FF0000FFFFFFFF80
FF0000FFFFFFFF80
FF0000FFFFFFFF80
FF0000FFFFFFFF80
FF0000FFFFFFFF80
FF0000FFFFFFFF80
FF0000FFFFFFFF80
FF000000007FFF80
FF000000007FFF80
FF000000007FFF80
FF000000007FFF80
FF000000007FFF80
FF000000007FFF80
FF000000007FFF80
FF000000007FFF80
00FFFFFFFFFF8000
00FFFFFFFFFF8000
00FFFFFFFFFF8000
00FFFFFFFFFF8000
00FFFFFFFFFF8000
00FFFFFFFFFF8000
00FFFFFFFFFF8000
00FFFFFFFFFF8000
ENDCHAR
STARTCHAR 0039
ENCODING 57
SWIDTH 990 0
DWIDTH 66 0
BBX 57 58 0 0
BITMAP
00FFFFFFFFFF8000
00FFFFFFFFFF8000
00FFFFFFFFFF8000
00FFFFFFFFFF8000
00FFFFFFFFFF8000
00FFFFFFFFFF8000
00FFFFFFFFFF8000
00FFFFFFFFFF8000
FFFF0000007FFF80
FFFF0000007FFF80
FFFF0000007FFF80
FFFF0000007FFF80
FFFF0000007FFF80
FFFF0000007FFF80
FFFF0000007FFF80
FFFF0000007FFF80
FFFF0000007FFF80
FFFF0000007FFF80
FFFF0000007FFF80
FFFF0000007FFF80
FFFF0000007FFF80
FFFF0000007FFF80
FFFF0000007FFF80
FFFF0000007FFF80
FFFF0000007FFF80
00FFFFFFFFFFFF80
00FFFFFFFFFFFF80
00FFFFFFFFFFFF80
00FFFFFFFFFFFF80
00FFFFFFFFFFFF80
00FFFFFFFFFFFF80
00FFFFFFFFFFFF80
00FFFFFFFFFFFF80
00000000007FFF80
00000000007FFF80
00000000007FFF80
00000000007FFF80
00000000007FFF80
00000000007FFF80
00000000007FFF80
00000000007FFF80
000000007FFF8000
000000007FFF8000
000000007FFF8000
000000007FFF8000
000000007FFF8000
000000007FFF8000
000000007FFF8000
000000007FFF8000
000000007FFF8000
00FFFFFFFF800000
00FFFFFFFF800000
00FFFFFFFF800000
00FFFFFFFF800000
00FFFFFFFF800000
00FFFFFFFF800000
00FFFFFFFF800000
00FFFFFFFF800000
ENDCHAR
STARTCHAR 003A
ENCODING 58
SWIDTH 975 0
DWIDTH 65 0
BBX 16 42 16 8
BITMAP
FFFF
FFFF
FFFF
FFFF
FFFF
FFFF
FFFF
FFFF
FFFF
FFFF
FFFF
FFFF
FFFF
FFFF
FFFF
FFFF
FFFF
0000
0000
0000
0000
0000
0000
0000
0000
FFFF
FFFF
FFFF
FFFF
FFFF
FFFF
FFFF
FFFF
FFFF
FFFF
FFFF
FFFF
FFFF
FFFF
FFFF
FFFF
FFFF
ENDCHAR
STARTCHAR 003B
ENCODING 59
SWIDTH 975 0
DWIDTH 65 0
BBX 16 58 16 -8
BITMAP
FFFF
FFFF
FFFF
FFFF
FFFF
FFFF
FFFF
FFFF
FFFF
FFFF
FFFF
FFFF
FFFF
FFFF
FFFF
FFFF
FFFF
0000
0000
0000
0000
0000
0000
0000
0000
FFFF
FFFF
FFFF
FFFF
FFFF
FFFF
FFFF
FFFF
FFFF
FFFF
FFFF
FFFF
FFFF
FFFF
FFFF
FFFF
FFFF
00FF
00FF
00FF
00FF
00FF
00FF
00FF
00FF
FF00
FF00
FF00
FF00
FF00
FF00
FF00
FF00
ENDCHAR
STARTCHAR 003C
ENCODING 60
SWIDTH 975 0
DWIDTH 65 0
BBX 41 58 8 0
BITMAP
000000FFFF80
000000FFFF80
000000FFFF80
000000FFFF80
000000FFFF80
000000FFFF80
000000FFFF80
000000FFFF80
00007FFF8000
00007FFF8000
00007FFF8000
00007FFF8000
00007FFF8000
00007FFF8000
00007FFF8000
00007FFF8000
00007FFF8000
00FFFF000000
00FFFF000000
00FFFF000000
00FFFF000000
00FFFF000000
00FFFF000000
00FFFF000000
00FFFF000000
FFFF80000000
FFFF80000000
FFFF80000000
FFFF80000000
FFFF80000000
FFFF80000000
FFFF80000000
FFFF80000000
00FFFF000000
00FFFF000000
00FFFF000000
00FFFF000000
00FFFF000000
00FFFF000000
00FFFF000000
00FFFF000000
00FFFF000000
00007FFF8000
00007FFF8000
00007FFF8000
00007FFF8000
00007FFF8000
00007FFF8000
00007FFF8000
00007FFF8000
000000FFFF80
000000FFFF80
000000FFFF80
000000FFFF80
000000FFFF80
000000FFFF80
000000FFFF80
000000FFFF80
ENDCHAR
STARTCHAR 003D
ENCODING 61
SWIDTH 975 0
DWIDTH 65 0
BBX 57 42 0 8
BITMAP
FFFFFFFFFFFFFF80
FFFFFFFFFFFFFF80
FFFFFFFFFFFFFF80
FFFFFFFFFFFFFF80
FFFFFFFFFFFFFF80
FFFFFFFFFFFFFF80
FFFFFFFFFFFFFF80
FFFFFFFFFFFFFF80
FFFFFFFFFFFFFF80
FFFFFFFFFFFFFF80
FFFFFFFFFFFFFF80
FFFFFFFFFFFFFF80
FFFFFFFFFFFFFF80
FFFFFFFFFFFFFF80
FFFFFFFFFFFFFF80
FFFFFFFFFFFFFF80
FFFFFFFFFFFFFF80
0000000000000000
0000000000000000
0000000000000000
0000000000000000
0000000000000000
0000000000000000
0000000000000000
0000000000000000
FFFFFFFFFFFFFF80
FFFFFFFFFFFFFF80
FFFFFFFFFFFFFF80
FFFFFFFFFFFFFF80
FFFFFFFFFFFFFF80
FFFFFFFFFFFFFF80
FFFFFFFFFFFFFF80
FFFFFFFFFFFFFF80
FFFFFFFFFFFFFF80
FFFFFFFFFFFFFF80
FFFFFFFFFFFFFF80
FFFFFFFFFFFFFF80
FFFFFFFFFFFFFF80
FFFFFFFFFFFFFF80
FFFFFFFFFFFFFF80
FFFFFFFFFFFFFF80
FFFFFFFFFFFFFF80
ENDCHAR
STARTCHAR 003E
ENCODING 62
SWIDTH 975 0
DWIDTH 65 0
BBX 41 58 8 0
BITMAP
FFFF00000000
FFFF00000000
FFFF00000000
FFFF00000000
FFFF00000000
FFFF00000000
FFFF00000000
FFFF00000000
00FFFF000000
00FFFF000000
00FFFF000000
00FFFF000000
00FFFF000000
00FFFF000000
00FFFF000000
00FFFF000000
00FFFF000000
0000FFFF8000
0000FFFF8000
0000FFFF8000
0000FFFF8000
0000FFFF8000
0000FFFF8000
0000FFFF8000
0000FFFF8000
000000FFFF80
000000FFFF80
000000FFFF80
000000FFFF80
000000FFFF80
000000FFFF80
000000FFFF80
000000FFFF80
0000FFFF8000
0000FFFF8000
0000FFFF8000
0000FFFF8000
0000FFFF8000
0000FFFF8000
0000FFFF8000
0000FFFF8000
0000FFFF8000
00FFFF000000
00FFFF000000
00FFFF000000
00FFFF000000
00FFFF000000
00FFFF000000
00FFFF000000
00FFFF000000
FFFF00000000
FFFF00000000
FFFF00000000
FFFF00000000
FFFF00000000
FFFF00000000
FFFF00000000
FFFF00000000
ENDCHAR
STARTCHAR 003F
ENCODING 63
SWIDTH 975 0
DWIDTH 65 0
BBX 40 66 0 -9
BITMAP
00FFFFFF00
00FFFFFF00
00FFFFFF00
00FFFFFF00
00FFFFFF00
00FFFFFF00
00FFFFFF00
00FFFFFF00
FFFF00FFFF
FFFF00FFFF
FFFF00FFFF
FFFF00FFFF
FFFF00FFFF
FFFF00FFFF
FFFF00FFFF
FFFF00FFFF
FFFF00FFFF
FF000000FF
FF000000FF
FF000000FF
FF000000FF
FF000000FF
FF000000FF
FF000000FF
FF000000FF
000000FFFF
000000FFFF
000000FFFF
000000FFFF
000000FFFF
000000FFFF
000000FFFF
000000FFFF
0000FFFF00
0000FFFF00
0000FFFF00
0000FFFF00
0000FFFF00
0000FFFF00
0000FFFF00
0000FFFF00
0000FFFF00
0000FF0000
0000FF0000
0000FF0000
0000FF0000
0000FF0000
0000FF0000
0000FF0000
0000FF0000
0000000000
0000000000
0000000000
0000000000
0000000000
0000000000
0000000000
0000000000
0000FF0000
0000FF0000
0000FF0000
0000FF0000
0000FF0000
0000FF0000
0000FF0000
0000FF0000
ENDCHAR
STARTCHAR 0040
ENCODING 64
SWIDTH 975 0
DWIDTH 65 0
BBX 57 58 0 0
BITMAP
00FFFFFFFFFF8000
00FFFFFFFFFF8000
00FFFFFFFFFF8000
00FFFFFFFFFF8000
00FFFFFFFFFF8000
00FFFFFFFFFF8000
00FFFFFFFFFF8000
00FFFFFFFFFF8000
FF00000000007F80
FF00000000007F80
FF00000000007F80
FF00000000007F80
FF00000000007F80
FF00000000007F80
FF00000000007F80
FF00000000007F80
FF00FFFFFF807F80
FF00FFFFFF807F80
FF00FFFFFF807F80
FF00FFFFFF807F80
FF00FFFFFF807F80
FF00FFFFFF807F80
FF00FFFFFF807F80
FF00FFFFFF807F80
FF00FFFFFF807F80
FF00FF807F807F80
FF00FF807F807F80
FF00FF807F807F80
FF00FF807F807F80
FF00FF807F807F80
FF00FF807F807F80
FF00FF807F807F80
FF00FF807F807F80
FF00FFFFFFFFFF80
FF00FFFFFFFFFF80
FF00FFFFFFFFFF80
FF00FFFFFFFFFF80
FF00FFFFFFFFFF80
FF00FFFFFFFFFF80
FF00FFFFFFFFFF80
FF00FFFFFFFFFF80
FF00000000000000
FF00000000000000
FF00000000000000
FF00000000000000
FF00000000000000
FF00000000000000
FF00000000000000
FF00000000000000
FF00000000000000
00FFFFFFFFFF8000
00FFFFFFFFFF8000
00FFFFFFFFFF8000
00FFFFFFFFFF8000
00FFFFFFFFFF8000
00FFFFFFFFFF8000
00FFFFFFFFFF8000
00FFFFFFFFFF8000
ENDCHAR
STARTCHAR 0041
ENCODING 65
SWIDTH 990 0
DWIDTH 66 0
BBX 57 58 0 0
BITMAP
0000FFFFFF800000
0000FFFFFF800000
0000FFFFFF800000
0000FFFFFF800000
0000FFFFFF800000
0000FFFFFF800000
0000FFFFFF800000
0000FFFFFF800000
00FFFF007FFF8000
00FFFF007FFF8000
00FFFF007FFF8000
00FFFF007FFF8000
00FFFF007FFF8000
00FFFF007FFF8000
00FFFF007FFF8000
00FFFF007FFF8000
00FFFF007FFF8000
FFFF0000007FFF80
FFFF0000007FFF80
FFFF0000007FFF80
FFFF0000007FFF80
FFFF0000007FFF80
FFFF0000007FFF80
FFFF0000007FFF80
FFFF0000007FFF80
FFFF0000007FFF80
FFFF0000007FFF80
FFFF0000007FFF80
FFFF0000007FFF80
FFFF0000007FFF80
FFFF0000007FFF80
FFFF0000007FFF80
FFFF0000007FFF80
FFFFFFFFFFFFFF80
FFFFFFFFFFFFFF80
FFFFFFFFFFFFFF80
FFFFFFFFFFFFFF80
FFFFFFFFFFFFFF80
FFFFFFFFFFFFFF80
FFFFFFFFFFFFFF80
FFFFFFFFFFFFFF80
FFFF0000007FFF80
FFFF0000007FFF80
FFFF0000007FFF80
FFFF0000007FFF80
FFFF0000007FFF80
FFFF0000007FFF80
FFFF0000007FFF80
FFFF0000007FFF80
FFFF0000007FFF80
FFFF0000007FFF80
FFFF0000007FFF80
FFFF0000007FFF80
FFFF0000007FFF80
FFFF0000007FFF80
FFFF0000007FFF80
FFFF0000007FFF80
FFFF0000007FFF80
ENDCHAR
STARTCHAR 0042
ENCODING 66
SWIDTH 990 0
DWIDTH 66 0
BBX 57 58 0 0
BITMAP
FFFFFFFFFFFF8000
FFFFFFFFFFFF8000
FFFFFFFFFFFF8000
FFFFFFFFFFFF8000
FFFFFFFFFFFF8000
FFFFFFFFFFFF8000
FFFFFFFFFFFF8000
FFFFFFFFFFFF8000
FFFF0000007FFF80
FFFF0000007FFF80
FFFF0000007FFF80
FFFF0000007FFF80
FFFF0000007FFF80
FFFF0000007FFF80
FFFF0000007FFF80
FFFF0000007FFF80
FFFF0000007FFF80
FFFF0000007FFF80
FFFF0000007FFF80
FFFF0000007FFF80
FFFF0000007FFF80
FFFF0000007FFF80
FFFF0000007FFF80
FFFF0000007FFF80
FFFF0000007FFF80
FFFFFFFFFFFF8000
FFFFFFFFFFFF8000
FFFFFFFFFFFF8000
FFFFFFFFFFFF8000
FFFFFFFFFFFF8000
FFFFFFFFFFFF8000
FFFFFFFFFFFF8000
FFFFFFFFFFFF8000
FFFF0000007FFF80
FFFF0000007FFF80
FFFF0000007FFF80
FFFF0000007FFF80
FFFF0000007FFF80
FFFF0000007FFF80
FFFF0000007FFF80
FFFF0000007FFF80
FFFF0000007FFF80
FFFF0000007FFF80
FFFF0000007FFF80
FFFF0000007FFF80
FFFF0000007FFF80
FFFF0000007FFF80
FFFF0000007FFF80
FFFF0000007FFF80
FFFF0000007FFF80
FFFFFFFFFFFF8000
FFFFFFFFFFFF8000
FFFFFFFFFFFF8000
FFFFFFFFFFFF8000
FFFFFFFFFFFF8000
FFFFFFFFFFFF8000
FFFFFFFFFFFF8000
FFFFFFFFFFFF8000
ENDCHAR
STARTCHAR 0043
ENCODING 67
SWIDTH 990 0
DWIDTH 66 0
BBX 57 58 0 0
BITMAP
0000FFFFFFFF8000
0000FFFFFFFF8000
0000FFFFFFFF8000
0000FFFFFFFF8000
0000FFFFFFFF8000
0000FFFFFFFF8000
0000FFFFFFFF8000
0000FFFFFFFF8000
00FFFF00007FFF80
00FFFF00007FFF80
00FFFF00007FFF80
00FFFF00007FFF80
00FFFF00007FFF80
00FFFF00007FFF80
00FFFF00007FFF80
00FFFF00007FFF80
FFFF000000000000
FFFF000000000000
FFFF000000000000
FFFF000000000000
FFFF000000000000
FFFF000000000000
FFFF000000000000
FFFF000000000000
FFFF000000000000
FFFF000000000000
FFFF000000000000
FFFF000000000000
FFFF000000000000
FFFF000000000000
FFFF000000000000
FFFF000000000000
FFFF000000000000
FFFF000000000000
FFFF000000000000
FFFF000000000000
FFFF000000000000
FFFF000000000000
FFFF000000000000
FFFF000000000000
FFFF000000000000
00FFFF00007FFF80
00FFFF00007FFF80
00FFFF00007FFF80
00FFFF00007FFF80
00FFFF00007FFF80
00FFFF00007FFF80
00FFFF00007FFF80
00FFFF00007FFF80
00FFFF00007FFF80
0000FFFFFFFF8000
0000FFFFFFFF8000
0000FFFFFFFF8000
0000FFFFFFFF8000
0000FFFFFFFF8000
0000FFFFFFFF8000
0000FFFFFFFF8000
0000FFFFFFFF8000
ENDCHAR
STARTCHAR 0044
ENCODING 68
SWIDTH 990 0
DWIDTH 66 0
BBX 57 58 0 0
BITMAP
FFFFFFFFFF800000
FFFFFFFFFF800000
FFFFFFFFFF800000
FFFFFFFFFF800000
FFFFFFFFFF800000
FFFFFFFFFF800000
FFFFFFFFFF800000
FFFFFFFFFF800000
FFFF00007FFF8000
FFFF00007FFF8000
FFFF00007FFF8000
FFFF00007FFF8000
FFFF00007FFF8000
FFFF00007FFF8000
FFFF00007FFF8000
FFFF00007FFF8000
FFFF00007FFF8000
FFFF0000007FFF80
FFFF0000007FFF80
FFFF0000007FFF80
FFFF0000007FFF80
FFFF0000007FFF80
FFFF0000007FFF80
FFFF0000007FFF80
FFFF0000007FFF80
FFFF0000007FFF80
FFFF0000007FFF80
FFFF0000007FFF80
FFFF0000007FFF80
FFFF0000007FFF80
FFFF0000007FFF80
FFFF0000007FFF80
FFFF0000007FFF80
FFFF0000007FFF80
FFFF0000007FFF80
FFFF0000007FFF80
FFFF0000007FFF80
FFFF0000007FFF80
FFFF0000007FFF80
FFFF0000007FFF80
FFFF0000007FFF80
FFFF0000007FFF80
FFFF00007FFF8000
FFFF00007FFF8000
FFFF00007FFF8000
FFFF00007FFF8000
FFFF00007FFF8000
FFFF00007FFF8000
FFFF00007FFF8000
FFFF00007FFF8000
FFFFFFFFFF800000
FFFFFFFFFF800000
FFFFFFFFFF800000
FFFFFFFFFF800000
FFFFFFFFFF800000
FFFFFFFFFF800000
FFFFFFFFFF800000
FFFFFFFFFF800000
ENDCHAR
STARTCHAR 0045
ENCODING 69
SWIDTH 975 0
DWIDTH 65 0
BBX 57 58 0 0
BITMAP
FFFFFFFFFFFFFF80
FFFFFFFFFFFFFF80
FFFFFFFFFFFFFF80
FFFFFFFFFFFFFF80
FFFFFFFFFFFFFF80
FFFFFFFFFFFFFF80
FFFFFFFFFFFFFF80
FFFFFFFFFFFFFF80
FFFF000000000000
FFFF000000000000
FFFF000000000000
FFFF000000000000
FFFF000000000000
FFFF000000000000
FFFF000000000000
FFFF000000000000
FFFF000000000000
FFFF000000000000
FFFF000000000000
FFFF000000000000
FFFF000000000000
FFFF000000000000
FFFF000000000000
FFFF000000000000
FFFF000000000000
FFFFFFFFFFFF8000
FFFFFFFFFFFF8000
FFFFFFFFFFFF8000
FFFFFFFFFFFF8000
FFFFFFFFFFFF8000
FFFFFFFFFFFF8000
FFFFFFFFFFFF8000
FFFFFFFFFFFF8000
FFFF000000000000
FFFF000000000000
FFFF000000000000
FFFF000000000000
FFFF000000000000
FFFF000000000000
FFFF000000000000
FFFF000000000000
FFFF000000000000
FFFF000000000000
FFFF000000000000
FFFF000000000000
FFFF000000000000
FFFF000000000000
FFFF000000000000
FFFF000000000000
FFFF000000000000
FFFFFFFFFFFFFF80
FFFFFFFFFFFFFF80
FFFFFFFFFFFFFF80
FFFFFFFFFFFFFF80
FFFFFFFFFFFFFF80
FFFFFFFFFFFFFF80
FFFFFFFFFFFFFF80
FFFFFFFFFFFFFF80
ENDCHAR
STARTCHAR 0046
ENCODING 70
SWIDTH 975 0
DWIDTH 65 0
BBX 57 58 0 0
BITMAP
FFFFFFFFFFFFFF80
FFFFFFFFFFFFFF80
FFFFFFFFFFFFFF80
FFFFFFFFFFFFFF80
FFFFFFFFFFFFFF80
FFFFFFFFFFFFFF80
FFFFFFFFFFFFFF80
FFFFFFFFFFFFFF80
FFFF000000000000
FFFF000000000000
FFFF000000000000
FFFF000000000000
FFFF000000000000
FFFF000000000000
FFFF000000000000
FFFF000000000000
FFFF000000000000
FFFF000000000000
FFFF000000000000
FFFF000000000000
FFFF000000000000
FFFF000000000000
FFFF000000000000
FFFF000000000000
FFFF000000000000
FFFFFFFFFFFF8000
FFFFFFFFFFFF8000
FFFFFFFFFFFF8000
FFFFFFFFFFFF8000
FFFFFFFFFFFF8000
FFFFFFFFFFFF8000
FFFFFFFFFFFF8000
FFFFFFFFFFFF8000
FFFF000000000000
FFFF000000000000
FFFF000000000000
FFFF000000000000
FFFF000000000000
FFFF000000000000
FFFF000000000000
FFFF000000000000
FFFF000000000000
FFFF000000000000
FFFF000000000000
FFFF000000000000
FFFF000000000000
FFFF000000000000
FFFF000000000000
FFFF000000000000
FFFF000000000000
FFFF000000000000
FFFF000000000000
FFFF000000000000
FFFF000000000000
FFFF000000000000
FFFF000000000000
FFFF000000000000
FFFF000000000000
ENDCHAR
STARTCHAR 0047
ENCODING 71
SWIDTH 990 0
DWIDTH 66 0
BBX 57 58 0 0
BITMAP
0000FFFFFFFFFF80
0000FFFFFFFFFF80
0000FFFFFFFFFF80
0000FFFFFFFFFF80
0000FFFFFFFFFF80
0000FFFFFFFFFF80
0000FFFFFFFFFF80
0000FFFFFFFFFF80
00FFFF0000000000
00FFFF0000000000
00FFFF0000000000
00FFFF0000000000
00FFFF0000000000
00FFFF0000000000
00FFFF0000000000
00FFFF0000000000
00FFFF0000000000
FFFF000000000000
FFFF000000000000
FFFF000000000000
FFFF000000000000
FFFF000000000000
FFFF000000000000
FFFF000000000000
FFFF000000000000
FFFF00007FFFFF80
FFFF00007FFFFF80
FFFF00007FFFFF80
FFFF00007FFFFF80
FFFF00007FFFFF80
FFFF00007FFFFF80
FFFF00007FFFFF80
FFFF00007FFFFF80
FFFF0000007FFF80
FFFF0000007FFF80
FFFF0000007FFF80
FFFF0000007FFF80
FFFF0000007FFF80
FFFF0000007FFF80
FFFF0000007FFF80
FFFF0000007FFF80
FFFF0000007FFF80
00FFFF00007FFF80
00FFFF00007FFF80
00FFFF00007FFF80
00FFFF00007FFF80
00FFFF00007FFF80
00FFFF00007FFF80
00FFFF00007FFF80
00FFFF00007FFF80
0000FFFFFFFFFF80
0000FFFFFFFFFF80
0000FFFFFFFFFF80
0000FFFFFFFFFF80
0000FFFFFFFFFF80
0000FFFFFFFFFF80
0000FFFFFFFFFF80
0000FFFFFFFFFF80
ENDCHAR
STARTCHAR 0048
ENCODING 72
SWIDTH 990 0
DWIDTH 66 0
BBX 57 58 0 0
BITMAP
FFFF0000007FFF80
FFFF0000007FFF80
FFFF0000007FFF80
FFFF0000007FFF80
FFFF0000007FFF80
FFFF0000007FFF80
FFFF0000007FFF80
FFFF0000007FFF80
FFFF0000007FFF80
FFFF0000007FFF80
FFFF0000007FFF80
FFFF0000007FFF80
FFFF0000007FFF80
FFFF0000007FFF80
FFFF0000007FFF80
FFFF0000007FFF80
FFFF0000007FFF80
FFFF0000007FFF80
FFFF0000007FFF80
FFFF0000007FFF80
FFFF0000007FFF80
FFFF0000007FFF80
FFFF0000007FFF80
FFFF0000007FFF80
FFFF0000007FFF80
FFFFFFFFFFFFFF80
FFFFFFFFFFFFFF80
FFFFFFFFFFFFFF80
FFFFFFFFFFFFFF80
FFFFFFFFFFFFFF80
FFFFFFFFFFFFFF80
FFFFFFFFFFFFFF80
FFFFFFFFFFFFFF80
FFFF0000007FFF80
FFFF0000007FFF80
FFFF0000007FFF80
FFFF0000007FFF80
FFFF0000007FFF80
FFFF0000007FFF80
FFFF0000007FFF80
FFFF0000007FFF80
FFFF0000007FFF80
FFFF0000007FFF80
FFFF0000007FFF80
FFFF0000007FFF80
FFFF0000007FFF80
FFFF0000007FFF80
FFFF0000007FFF80
FFFF0000007FFF80
FFFF0000007FFF80
FFFF0000007FFF80
FFFF0000007FFF80
FFFF0000007FFF80
FFFF0000007FFF80
FFFF0000007FFF80
FFFF0000007FFF80
FFFF0000007FFF80
FFFF0000007FFF80
ENDCHAR
STARTCHAR 0049
ENCODING 73
SWIDTH 975 0
DWIDTH 65 0
BBX 49 58 8 0
BITMAP
FFFFFFFFFFFF80
FFFFFFFFFFFF80
FFFFFFFFFFFF80
FFFFFFFFFFFF80
FFFFFFFFFFFF80
FFFFFFFFFFFF80
FFFFFFFFFFFF80
FFFFFFFFFFFF80
00007FFF800000
00007FFF800000
00007FFF800000
00007FFF800000
00007FFF800000
00007FFF800000
00007FFF800000
00007FFF800000
00007FFF800000
00007FFF800000
00007FFF800000
00007FFF800000
00007FFF800000
00007FFF800000
00007FFF800000
00007FFF800000
00007FFF800000
00007FFF800000
00007FFF800000
00007FFF800000
00007FFF800000
00007FFF800000
00007FFF800000
00007FFF800000
00007FFF800000
00007FFF800000
00007FFF800000
00007FFF800000
00007FFF800000
00007FFF800000
00007FFF800000
00007FFF800000
00007FFF800000
00007FFF800000
00007FFF800000
00007FFF800000
00007FFF800000
00007FFF800000
00007FFF800000
00007FFF800000
00007FFF800000
00007FFF800000
FFFFFFFFFFFF80
FFFFFFFFFFFF80
FFFFFFFFFFFF80
FFFFFFFFFFFF80
FFFFFFFFFFFF80
FFFFFFFFFFFF80
FFFFFFFFFFFF80
FFFFFFFFFFFF80
ENDCHAR
STARTCHAR 004A
ENCODING 74
SWIDTH 990 0
DWIDTH 66 0
BBX 57 58 0 0
BITMAP
00000000007FFF80
00000000007FFF80
00000000007FFF80
00000000007FFF80
00000000007FFF80
00000000007FFF80
00000000007FFF80
00000000007FFF80
00000000007FFF80
00000000007FFF80
00000000007FFF80
00000000007FFF80
00000000007FFF80
00000000007FFF80
00000000007FFF80
00000000007FFF80
00000000007FFF80
00000000007FFF80
00000000007FFF80
00000000007FFF80
00000000007FFF80
00000000007FFF80
00000000007FFF80
00000000007FFF80
00000000007FFF80
00000000007FFF80
00000000007FFF80
00000000007FFF80
00000000007FFF80
00000000007FFF80
00000000007FFF80
00000000007FFF80
00000000007FFF80
00000000007FFF80
00000000007FFF80
00000000007FFF80
00000000007FFF80
00000000007FFF80
00000000007FFF80
00000000007FFF80
00000000007FFF80
00000000007FFF80
FFFF0000007FFF80
FFFF0000007FFF80
FFFF0000007FFF80
FFFF0000007FFF80
FFFF0000007FFF80
FFFF0000007FFF80
FFFF0000007FFF80
FFFF0000007FFF80
00FFFFFFFFFF8000
00FFFFFFFFFF8000
00FFFFFFFFFF8000
00FFFFFFFFFF8000
00FFFFFFFFFF8000
00FFFFFFFFFF8000
00FFFFFFFFFF8000
00FFFFFFFFFF8000
ENDCHAR
STARTCHAR 004B
ENCODING 75
SWIDTH 990 0
DWIDTH 66 0
BBX 57 58 0 0
BITMAP
FFFF0000007FFF80
FFFF0000007FFF80
FFFF0000007FFF80
FFFF0000007FFF80
FFFF0000007FFF80
FFFF0000007FFF80
FFFF0000007FFF80
FFFF0000007FFF80
FFFF00007FFF8000
FFFF00007FFF8000
FFFF00007FFF8000
FFFF00007FFF8000
FFFF00007FFF8000
FFFF00007FFF8000
FFFF00007FFF8000
FFFF00007FFF8000
FFFF00007FFF8000
FFFF007FFF800000
FFFF007FFF800000
FFFF007FFF800000
FFFF007FFF800000
FFFF007FFF800000
FFFF007FFF800000
FFFF007FFF800000
FFFF007FFF800000
FFFFFFFF80000000
FFFFFFFF80000000
FFFFFFFF80000000
FFFFFFFF80000000
FFFFFFFF80000000
FFFFFFFF80000000
FFFFFFFF80000000
FFFFFFFF80000000
FFFFFFFFFF800000
FFFFFFFFFF800000
FFFFFFFFFF800000
FFFFFFFFFF800000
FFFFFFFFFF800000
FFFFFFFFFF800000
FFFFFFFFFF800000
FFFFFFFFFF800000
FFFFFFFFFF800000
FFFF007FFFFF8000
FFFF007FFFFF8000
FFFF007FFFFF8000
FFFF007FFFFF8000
FFFF007FFFFF8000
FFFF007FFFFF8000
FFFF007FFFFF8000
FFFF007FFFFF8000
FFFF00007FFFFF80
FFFF00007FFFFF80
FFFF00007FFFFF80
FFFF00007FFFFF80
FFFF00007FFFFF80
FFFF00007FFFFF80
FFFF00007FFFFF80
FFFF00007FFFFF80
ENDCHAR
STARTCHAR 004C
ENCODING 76
SWIDTH 975 0
DWIDTH 65 0
BBX 49 58 8 0
BITMAP
FFFF0000000000
FFFF0000000000
FFFF0000000000
FFFF0000000000
FFFF0000000000
FFFF0000000000
FFFF0000000000
FFFF0000000000
FFFF0000000000
FFFF0000000000
FFFF0000000000
FFFF0000000000
FFFF0000000000
FFFF0000000000
FFFF0000000000
FFFF0000000000
FFFF0000000000
FFFF0000000000
FFFF0000000000
FFFF0000000000
FFFF0000000000
FFFF0000000000
FFFF0000000000
FFFF0000000000
FFFF0000000000
FFFF0000000000
FFFF0000000000
FFFF0000000000
FFFF0000000000
FFFF0000000000
FFFF0000000000
FFFF0000000000
FFFF0000000000
FFFF0000000000
FFFF0000000000
FFFF0000000000
FFFF0000000000
FFFF0000000000
FFFF0000000000
FFFF0000000000
FFFF0000000000
FFFF0000000000
FFFF0000000000
FFFF0000000000
FFFF0000000000
FFFF0000000000
FFFF0000000000
FFFF0000000000
FFFF0000000000
FFFF0000000000
FFFFFFFFFFFF80
FFFFFFFFFFFF80
FFFFFFFFFFFF80
FFFFFFFFFFFF80
FFFFFFFFFFFF80
FFFFFFFFFFFF80
FFFFFFFFFFFF80
FFFFFFFFFFFF80
ENDCHAR
STARTCHAR 004D
ENCODING 77
SWIDTH 990 0
DWIDTH 66 0
BBX 57 58 0 0
BITMAP
FFFF0000007FFF80
FFFF0000007FFF80
FFFF0000007FFF80
FFFF0000007FFF80
FFFF0000007FFF80
FFFF0000007FFF80
FFFF0000007FFF80
FFFF0000007FFF80
FFFFFF807FFFFF80
FFFFFF807FFFFF80
FFFFFF807FFFFF80
FFFFFF807FFFFF80
FFFFFF807FFFFF80
FFFFFF807FFFFF80
FFFFFF807FFFFF80
FFFFFF807FFFFF80
FFFFFF807FFFFF80
FFFFFFFFFFFFFF80
FFFFFFFFFFFFFF80
FFFFFFFFFFFFFF80
FFFFFFFFFFFFFF80
FFFFFFFFFFFFFF80
FFFFFFFFFFFFFF80
FFFFFFFFFFFFFF80
FFFFFFFFFFFFFF80
FFFFFFFFFFFFFF80
FFFFFFFFFFFFFF80
FFFFFFFFFFFFFF80
FFFFFFFFFFFFFF80
FFFFFFFFFFFFFF80
FFFFFFFFFFFFFF80
FFFFFFFFFFFFFF80
FFFFFFFFFFFFFF80
FFFF007F807FFF80
FFFF007F807FFF80
FFFF007F807FFF80
FFFF007F807FFF80
FFFF007F807FFF80
FFFF007F807FFF80
FFFF007F807FFF80
FFFF007F807FFF80
FFFF007F807FFF80
FFFF0000007FFF80
FFFF0000007FFF80
FFFF0000007FFF80
FFFF0000007FFF80
FFFF0000007FFF80
FFFF0000007FFF80
FFFF0000007FFF80
FFFF0000007FFF80
FFFF0000007FFF80
FFFF0000007FFF80
FFFF0000007FFF80
FFFF0000007FFF80
FFFF0000007FFF80
FFFF0000007FFF80
FFFF0000007FFF80
FFFF0000007FFF80
ENDCHAR
STARTCHAR 004E
ENCODING 78
SWIDTH 990 0
DWIDTH 66 0
BBX 57 58 0 0
BITMAP
FFFF0000007FFF80
FFFF0000007FFF80
FFFF0000007FFF80
FFFF0000007FFF80
FFFF0000007FFF80
FFFF0000007FFF80
FFFF0000007FFF80
FFFF0000007FFF80
FFFFFF80007FFF80
FFFFFF80007FFF80
FFFFFF80007FFF80
FFFFFF80007FFF80
FFFFFF80007FFF80
FFFFFF80007FFF80
FFFFFF80007FFF80
FFFFFF80007FFF80
FFFFFF80007FFF80
FFFFFFFF807FFF80
FFFFFFFF807FFF80
FFFFFFFF807FFF80
FFFFFFFF807FFF80
FFFFFFFF807FFF80
FFFFFFFF807FFF80
FFFFFFFF807FFF80
FFFFFFFF807FFF80
FFFFFFFFFFFFFF80
FFFFFFFFFFFFFF80
FFFFFFFFFFFFFF80
FFFFFFFFFFFFFF80
FFFFFFFFFFFFFF80
FFFFFFFFFFFFFF80
FFFFFFFFFFFFFF80
FFFFFFFFFFFFFF80
FFFF00FFFFFFFF80
FFFF00FFFFFFFF80
FFFF00FFFFFFFF80
FFFF00FFFFFFFF80
FFFF00FFFFFFFF80
FFFF00FFFFFFFF80
FFFF00FFFFFFFF80
FFFF00FFFFFFFF80
FFFF00FFFFFFFF80
FFFF00007FFFFF80
FFFF00007FFFFF80
FFFF00007FFFFF80
FFFF00007FFFFF80
FFFF00007FFFFF80
FFFF00007FFFFF80
FFFF00007FFFFF80
FFFF00007FFFFF80
FFFF0000007FFF80
FFFF0000007FFF80
FFFF0000007FFF80
FFFF0000007FFF80
FFFF0000007FFF80
FFFF0000007FFF80
FFFF0000007FFF80
FFFF0000007FFF80
ENDCHAR
STARTCHAR 004F
ENCODING 79
SWIDTH 990 0
DWIDTH 66 0
BBX 57 58 0 0
BITMAP
00FFFFFFFFFF8000
00FFFFFFFFFF8000
00FFFFFFFFFF8000
00FFFFFFFFFF8000
00FFFFFFFFFF8000
00FFFFFFFFFF8000
00FFFFFFFFFF8000
00FFFFFFFFFF8000
FFFF0000007FFF80
FFFF0000007FFF80
FFFF0000007FFF80
FFFF0000007FFF80
FFFF0000007FFF80
FFFF0000007FFF80
FFFF0000007FFF80
FFFF0000007FFF80
FFFF0000007FFF80
FFFF0000007FFF80
FFFF0000007FFF80
FFFF0000007FFF80
FFFF0000007FFF80
FFFF0000007FFF80
FFFF0000007FFF80
FFFF0000007FFF80
FFFF0000007FFF80
FFFF0000007FFF80
FFFF0000007FFF80
FFFF0000007FFF80
FFFF0000007FFF80
FFFF0000007FFF80
FFFF0000007FFF80
FFFF0000007FFF80
FFFF0000007FFF80
FFFF0000007FFF80
FFFF0000007FFF80
FFFF0000007FFF80
FFFF0000007FFF80
FFFF0000007FFF80
FFFF0000007FFF80
FFFF0000007FFF80
FFFF0000007FFF80
FFFF0000007FFF80
FFFF0000007FFF80
FFFF0000007FFF80
FFFF0000007FFF80
FFFF0000007FFF80
FFFF0000007FFF80
FFFF0000007FFF80
FFFF0000007FFF80
FFFF0000007FFF80
00FFFFFFFFFF8000
00FFFFFFFFFF8000
00FFFFFFFFFF8000
00FFFFFFFFFF8000
00FFFFFFFFFF8000
00FFFFFFFFFF8000
00FFFFFFFFFF8000
00FFFFFFFFFF8000
ENDCHAR
STARTCHAR 0050
ENCODING 80
SWIDTH 990 0
DWIDTH 66 0
BBX 57 58 0 0
BITMAP
FFFFFFFFFFFF8000
FFFFFFFFFFFF8000
FFFFFFFFFFFF8000
FFFFFFFFFFFF8000
FFFFFFFFFFFF8000
FFFFFFFFFFFF8000
FFFFFFFFFFFF8000
FFFFFFFFFFFF8000
FFFF0000007FFF80
FFFF0000007FFF80
FFFF0000007FFF80
FFFF0000007FFF80
FFFF0000007FFF80
FFFF0000007FFF80
FFFF0000007FFF80
FFFF0000007FFF80
FFFF0000007FFF80
FFFF0000007FFF80
FFFF0000007FFF80
FFFF0000007FFF80
FFFF0000007FFF80
FFFF0000007FFF80
FFFF0000007FFF80
FFFF0000007FFF80
FFFF0000007FFF80
FFFF0000007FFF80
FFFF0000007FFF80
FFFF0000007FFF80
FFFF0000007FFF80
FFFF0000007FFF80
FFFF0000007FFF80
FFFF0000007FFF80
FFFF0000007FFF80
FFFFFFFFFFFF8000
FFFFFFFFFFFF8000
FFFFFFFFFFFF8000
FFFFFFFFFFFF8000
FFFFFFFFFFFF8000
FFFFFFFFFFFF8000
FFFFFFFFFFFF8000
FFFFFFFFFFFF8000
FFFF000000000000
FFFF000000000000
FFFF000000000000
FFFF000000000000
FFFF000000000000
FFFF000000000000
FFFF000000000000
FFFF000000000000
FFFF000000000000
FFFF000000000000
FFFF000000000000
FFFF000000000000
FFFF000000000000
FFFF000000000000
FFFF000000000000
FFFF000000000000
FFFF000000000000
ENDCHAR
STARTCHAR 0051
ENCODING 81
SWIDTH 975 0
DWIDTH 65 0
BBX 57 58 0 0
BITMAP
00FFFFFFFFFF8000
00FFFFFFFFFF8000
00FFFFFFFFFF8000
00FFFFFFFFFF8000
00FFFFFFFFFF8000
00FFFFFFFFFF8000
00FFFFFFFFFF8000
00FFFFFFFFFF8000
FFFF0000007FFF80
FFFF0000007FFF80
FFFF0000007FFF80
FFFF0000007FFF80
FFFF0000007FFF80
FFFF0000007FFF80
FFFF0000007FFF80
FFFF0000007FFF80
FFFF0000007FFF80
FFFF0000007FFF80
FFFF0000007FFF80
FFFF0000007FFF80
FFFF0000007FFF80
FFFF0000007FFF80
FFFF0000007FFF80
FFFF0000007FFF80
FFFF0000007FFF80
FFFF0000007FFF80
FFFF0000007FFF80
FFFF0000007FFF80
FFFF0000007FFF80
FFFF0000007FFF80
FFFF0000007FFF80
FFFF0000007FFF80
FFFF0000007FFF80
FFFF007FFFFFFF80
FFFF007FFFFFFF80
FFFF007FFFFFFF80
FFFF007FFFFFFF80
FFFF007FFFFFFF80
FFFF007FFFFFFF80
FFFF007FFFFFFF80
FFFF007FFFFFFF80
FFFF00007FFF8000
FFFF00007FFF8000
FFFF00007FFF8000
FFFF00007FFF8000
FFFF00007FFF8000
FFFF00007FFF8000
FFFF00007FFF8000
FFFF00007FFF8000
FFFF00007FFF8000
00FFFFFFFF807F80
00FFFFFFFF807F80
00FFFFFFFF807F80
00FFFFFFFF807F80
00FFFFFFFF807F80
00FFFFFFFF807F80
00FFFFFFFF807F80
00FFFFFFFF807F80
ENDCHAR
STARTCHAR 0052
ENCODING 82
SWIDTH 990 0
DWIDTH 66 0
BBX 57 58 0 0
BITMAP
FFFFFFFFFFFF8000
FFFFFFFFFFFF8000
FFFFFFFFFFFF8000
FFFFFFFFFFFF8000
FFFFFFFFFFFF8000
FFFFFFFFFFFF8000
FFFFFFFFFFFF8000
FFFFFFFFFFFF8000
FFFF0000007FFF80
FFFF0000007FFF80
FFFF0000007FFF80
FFFF0000007FFF80
FFFF0000007FFF80
FFFF0000007FFF80
FFFF0000007FFF80
FFFF0000007FFF80
FFFF0000007FFF80
FFFF0000007FFF80
FFFF0000007FFF80
FFFF0000007FFF80
FFFF0000007FFF80
FFFF0000007FFF80
FFFF0000007FFF80
FFFF0000007FFF80
FFFF0000007FFF80
FFFF0000FFFFFF80
FFFF0000FFFFFF80
FFFF0000FFFFFF80
FFFF0000FFFFFF80
FFFF0000FFFFFF80
FFFF0000FFFFFF80
FFFF0000FFFFFF80
FFFF0000FFFFFF80
FFFFFFFFFF800000
FFFFFFFFFF800000
FFFFFFFFFF800000
FFFFFFFFFF800000
FFFFFFFFFF800000
FFFFFFFFFF800000
FFFFFFFFFF800000
FFFFFFFFFF800000
FFFF00FFFFFF8000
FFFF00FFFFFF8000
FFFF00FFFFFF8000
FFFF00FFFFFF8000
FFFF00FFFFFF8000
FFFF00FFFFFF8000
FFFF00FFFFFF8000
FFFF00FFFFFF8000
FFFF00FFFFFF8000
FFFF0000FFFFFF80
FFFF0000FFFFFF80
FFFF0000FFFFFF80
FFFF0000FFFFFF80
FFFF0000FFFFFF80
FFFF0000FFFFFF80
FFFF0000FFFFFF80
FFFF0000FFFFFF80
ENDCHAR
STARTCHAR 0053
ENCODING 83
SWIDTH 990 0
DWIDTH 66 0
BBX 57 58 0 0
BITMAP
00FFFFFFFF800000
00FFFFFFFF800000
00FFFFFFFF800000
00FFFFFFFF800000
00FFFFFFFF800000
00FFFFFFFF800000
00FFFFFFFF800000
00FFFFFFFF800000
FFFF00007FFF8000
FFFF00007FFF8000
FFFF00007FFF8000
FFFF00007FFF8000
FFFF00007FFF8000
FFFF00007FFF8000
FFFF00007FFF8000
FFFF00007FFF8000
FFFF000000000000
FFFF000000000000
FFFF000000000000
FFFF000000000000
FFFF000000000000
FFFF000000000000
FFFF000000000000
FFFF000000000000
FFFF000000000000
00FFFFFFFFFF8000
00FFFFFFFFFF8000
00FFFFFFFFFF8000
00FFFFFFFFFF8000
00FFFFFFFFFF8000
00FFFFFFFFFF8000
00FFFFFFFFFF8000
00FFFFFFFFFF8000
00000000007FFF80
00000000007FFF80
00000000007FFF80
00000000007FFF80
00000000007FFF80
00000000007FFF80
00000000007FFF80
00000000007FFF80
FFFF0000007FFF80
FFFF0000007FFF80
FFFF0000007FFF80
FFFF0000007FFF80
FFFF0000007FFF80
FFFF0000007FFF80
FFFF0000007FFF80
FFFF0000007FFF80
FFFF0000007FFF80
00FFFFFFFFFF8000
00FFFFFFFFFF8000
00FFFFFFFFFF8000
00FFFFFFFFFF8000
00FFFFFFFFFF8000
00FFFFFFFFFF8000
00FFFFFFFFFF8000
00FFFFFFFFFF8000
ENDCHAR
STARTCHAR 0054
ENCODING 84
SWIDTH 975 0
DWIDTH 65 0
BBX 49 58 8 0
BITMAP
FFFFFFFFFFFF80
FFFFFFFFFFFF80
FFFFFFFFFFFF80
FFFFFFFFFFFF80
FFFFFFFFFFFF80
FFFFFFFFFFFF80
FFFFFFFFFFFF80
FFFFFFFFFFFF80
00007FFF800000
00007FFF800000
00007FFF800000
00007FFF800000
00007FFF800000
00007FFF800000
00007FFF800000
00007FFF800000
00007FFF800000
00007FFF800000
00007FFF800000
00007FFF800000
00007FFF800000
00007FFF800000
00007FFF800000
00007FFF800000
00007FFF800000
00007FFF800000
00007FFF800000
00007FFF800000
00007FFF800000
00007FFF800000
00007FFF800000
00007FFF800000
00007FFF800000
00007FFF800000
00007FFF800000
00007FFF800000
00007FFF800000
00007FFF800000
00007FFF800000
00007FFF800000
00007FFF800000
00007FFF800000
00007FFF800000
00007FFF800000
00007FFF800000
00007FFF800000
00007FFF800000
00007FFF800000
00007FFF800000
00007FFF800000
00007FFF800000
00007FFF800000
00007FFF800000
00007FFF800000
00007FFF800000
00007FFF800000
00007FFF800000
00007FFF800000
ENDCHAR
STARTCHAR 0055
ENCODING 85
SWIDTH 990 0
DWIDTH 66 0
BBX 57 58 0 0
BITMAP
FFFF0000007FFF80
FFFF0000007FFF80
FFFF0000007FFF80
FFFF0000007FFF80
FFFF0000007FFF80
FFFF0000007FFF80
FFFF0000007FFF80
FFFF0000007FFF80
FFFF0000007FFF80
FFFF0000007FFF80
FFFF0000007FFF80
FFFF0000007FFF80
FFFF0000007FFF80
FFFF0000007FFF80
FFFF0000007FFF80
FFFF0000007FFF80
FFFF0000007FFF80
FFFF0000007FFF80
FFFF0000007FFF80
FFFF0000007FFF80
FFFF0000007FFF80
FFFF0000007FFF80
FFFF0000007FFF80
FFFF0000007FFF80
FFFF0000007FFF80
FFFF0000007FFF80
FFFF0000007FFF80
FFFF0000007FFF80
FFFF0000007FFF80
FFFF0000007FFF80
FFFF0000007FFF80
FFFF0000007FFF80
FFFF0000007FFF80
FFFF0000007FFF80
FFFF0000007FFF80
FFFF0000007FFF80
FFFF0000007FFF80
FFFF0000007FFF80
FFFF0000007FFF80
FFFF0000007FFF80
FFFF0000007FFF80
FFFF0000007FFF80
FFFF0000007FFF80
FFFF0000007FFF80
FFFF0000007FFF80
FFFF0000007FFF80
FFFF0000007FFF80
FFFF0000007FFF80
FFFF0000007FFF80
FFFF0000007FFF80
00FFFFFFFFFF8000
00FFFFFFFFFF8000
00FFFFFFFFFF8000
00FFFFFFFFFF8000
00FFFFFFFFFF8000
00FFFFFFFFFF8000
00FFFFFFFFFF8000
00FFFFFFFFFF8000
ENDCHAR
STARTCHAR 0056
ENCODING 86
SWIDTH 990 0
DWIDTH 66 0
BBX 57 58 0 0
BITMAP
FFFF0000007FFF80
FFFF0000007FFF80
FFFF0000007FFF80
FFFF0000007FFF80
FFFF0000007FFF80
FFFF0000007FFF80
FFFF0000007FFF80
FFFF0000007FFF80
FFFF0000007FFF80
FFFF0000007FFF80
FFFF0000007FFF80
FFFF0000007FFF80
FFFF0000007FFF80
FFFF0000007FFF80
FFFF0000007FFF80
FFFF0000007FFF80
FFFF0000007FFF80
FFFF0000007FFF80
FFFF0000007FFF80
FFFF0000007FFF80
FFFF0000007FFF80
FFFF0000007FFF80
FFFF0000007FFF80
FFFF0000007FFF80
FFFF0000007FFF80
FFFFFF807FFFFF80
FFFFFF807FFFFF80
FFFFFF807FFFFF80
FFFFFF807FFFFF80
FFFFFF807FFFFF80
FFFFFF807FFFFF80
FFFFFF807FFFFF80
FFFFFF807FFFFF80
00FFFFFFFFFF8000
00FFFFFFFFFF8000
00FFFFFFFFFF8000
00FFFFFFFFFF8000
00FFFFFFFFFF8000
00FFFFFFFFFF8000
00FFFFFFFFFF8000
00FFFFFFFFFF8000
0000FFFFFF800000
0000FFFFFF800000
0000FFFFFF800000
0000FFFFFF800000
0000FFFFFF800000
0000FFFFFF800000
0000FFFFFF800000
0000FFFFFF800000
0000FFFFFF800000
0000007F80000000
0000007F80000000
0000007F80000000
0000007F80000000
0000007F80000000
0000007F80000000
0000007F80000000
0000007F80000000
ENDCHAR
STARTCHAR 0057
ENCODING 87
SWIDTH 990 0
DWIDTH 66 0
BBX 57 58 0 0
BITMAP
FFFF0000007FFF80
FFFF0000007FFF80
FFFF0000007FFF80
FFFF0000007FFF80
FFFF0000007FFF80
FFFF0000007FFF80
FFFF0000007FFF80
FFFF0000007FFF80
FFFF0000007FFF80
FFFF0000007FFF80
FFFF0000007FFF80
FFFF0000007FFF80
FFFF0000007FFF80
FFFF0000007FFF80
FFFF0000007FFF80
FFFF0000007FFF80
FFFF007F807FFF80
FFFF007F807FFF80
FFFF007F807FFF80
FFFF007F807FFF80
FFFF007F807FFF80
FFFF007F807FFF80
FFFF007F807FFF80
FFFF007F807FFF80
FFFF007F807FFF80
FFFFFFFFFFFFFF80
FFFFFFFFFFFFFF80
FFFFFFFFFFFFFF80
FFFFFFFFFFFFFF80
FFFFFFFFFFFFFF80
FFFFFFFFFFFFFF80
FFFFFFFFFFFFFF80
FFFFFFFFFFFFFF80
FFFFFFFFFFFFFF80
FFFFFFFFFFFFFF80
FFFFFFFFFFFFFF80
FFFFFFFFFFFFFF80
FFFFFFFFFFFFFF80
FFFFFFFFFFFFFF80
FFFFFFFFFFFFFF80
FFFFFFFFFFFFFF80
00FFFF807FFF8000
00FFFF807FFF8000
00FFFF807FFF8000
00FFFF807FFF8000
00FFFF807FFF8000
00FFFF807FFF8000
00FFFF807FFF8000
00FFFF807FFF8000
00FFFF807FFF8000
00FF0000007F8000
00FF0000007F8000
00FF0000007F8000
00FF0000007F8000
00FF0000007F8000
00FF0000007F8000
00FF0000007F8000
00FF0000007F8000
ENDCHAR
STARTCHAR 0058
ENCODING 88
SWIDTH 990 0
DWIDTH 66 0
BBX 57 58 0 0
BITMAP
FFFF0000007FFF80
FFFF0000007FFF80
FFFF0000007FFF80
FFFF0000007FFF80
FFFF0000007FFF80
FFFF0000007FFF80
FFFF0000007FFF80
FFFF0000007FFF80
FFFF0000007FFF80
FFFFFF807FFFFF80
FFFFFF807FFFFF80
FFFFFF807FFFFF80
FFFFFF807FFFFF80
FFFFFF807FFFFF80
FFFFFF807FFFFF80
FFFFFF807FFFFF80
FFFFFF807FFFFF80
00FFFFFFFFFF8000
00FFFFFFFFFF8000
00FFFFFFFFFF8000
00FFFFFFFFFF8000
00FFFFFFFFFF8000
00FFFFFFFFFF8000
00FFFFFFFFFF8000
00FFFFFFFFFF8000
0000FFFFFF800000
0000FFFFFF800000
0000FFFFFF800000
0000FFFFFF800000
0000FFFFFF800000
0000FFFFFF800000
0000FFFFFF800000
0000FFFFFF800000
00FFFFFFFFFF8000
00FFFFFFFFFF8000
00FFFFFFFFFF8000
00FFFFFFFFFF8000
00FFFFFFFFFF8000
00FFFFFFFFFF8000
00FFFFFFFFFF8000
00FFFFFFFFFF8000
FFFFFF807FFFFF80
FFFFFF807FFFFF80
FFFFFF807FFFFF80
FFFFFF807FFFFF80
FFFFFF807FFFFF80
FFFFFF807FFFFF80
FFFFFF807FFFFF80
FFFFFF807FFFFF80
FFFFFF807FFFFF80
FFFF0000007FFF80
FFFF0000007FFF80
FFFF0000007FFF80
FFFF0000007FFF80
FFFF0000007FFF80
FFFF0000007FFF80
FFFF0000007FFF80
FFFF0000007FFF80
ENDCHAR
STARTCHAR 0059
ENCODING 89
SWIDTH 975 0
DWIDTH 65 0
BBX 49 58 8 0
BITMAP
FFFF00007FFF80
FFFF00007FFF80
FFFF00007FFF80
FFFF00007FFF80
FFFF00007FFF80
FFFF00007FFF80
FFFF00007FFF80
FFFF00007FFF80
FFFF00007FFF80
FFFF00007FFF80
FFFF00007FFF80
FFFF00007FFF80
FFFF00007FFF80
FFFF00007FFF80
FFFF00007FFF80
FFFF00007FFF80
FFFF00007FFF80
00FF00007F8000
00FF00007F8000
00FF00007F8000
00FF00007F8000
00FF00007F8000
00FF00007F8000
00FF00007F8000
00FF00007F8000
00FFFFFFFF8000
00FFFFFFFF8000
00FFFFFFFF8000
00FFFFFFFF8000
00FFFFFFFF8000
00FFFFFFFF8000
00FFFFFFFF8000
00FFFFFFFF8000
00FFFFFFFF8000
0000FFFF800000
0000FFFF800000
0000FFFF800000
0000FFFF800000
0000FFFF800000
0000FFFF800000
0000FFFF800000
0000FFFF800000
0000FFFF800000
0000FFFF800000
0000FFFF800000
0000FFFF800000
0000FFFF800000
0000FFFF800000
0000FFFF800000
0000FFFF800000
0000FFFF800000
0000FFFF800000
0000FFFF800000
0000FFFF800000
0000FFFF800000
0000FFFF800000
0000FFFF800000
0000FFFF800000
ENDCHAR
STARTCHAR 005A
ENCODING 90
SWIDTH 990 0
DWIDTH 66 0
BBX 58 58 0 0
BITMAP
FFFFFFFFFFFFFFC0
FFFFFFFFFFFFFFC0
FFFFFFFFFFFFFFC0
FFFFFFFFFFFFFFC0
FFFFFFFFFFFFFFC0
FFFFFFFFFFFFFFC0
FFFFFFFFFFFFFFC0
FFFFFFFFFFFFFFC0
000000007FFFFFC0
000000007FFFFFC0
000000007FFFFFC0
000000007FFFFFC0
000000007FFFFFC0
000000007FFFFFC0
000000007FFFFFC0
000000007FFFFFC0
000000007FFFFFC0
0000007FFFFFC000
0000007FFFFFC000
0000007FFFFFC000
0000007FFFFFC000
0000007FFFFFC000
0000007FFFFFC000
0000007FFFFFC000
0000007FFFFFC000
0000FFFFFF800000
0000FFFFFF800000
0000FFFFFF800000
0000FFFFFF800000
0000FFFFFF800000
0000FFFFFF800000
0000FFFFFF800000
0000FFFFFF800000
00FFFFFF80000000
00FFFFFF80000000
00FFFFFF80000000
00FFFFFF80000000
00FFFFFF80000000
00FFFFFF80000000
00FFFFFF80000000
00FFFFFF80000000
00FFFFFF80000000
FFFFFF8000000000
FFFFFF8000000000
FFFFFF8000000000
FFFFFF8000000000
FFFFFF8000000000
FFFFFF8000000000
FFFFFF8000000000
FFFFFF8000000000
FFFFFFFFFFFFFFC0
FFFFFFFFFFFFFFC0
FFFFFFFFFFFFFFC0
FFFFFFFFFFFFFFC0
FFFFFFFFFFFFFFC0
FFFFFFFFFFFFFFC0
FFFFFFFFFFFFFFC0
FFFFFFFFFFFFFFC0
ENDCHAR
STARTCHAR 005B
ENCODING 91
SWIDTH 975 0
DWIDTH 65 0
BBX 33 58 16 0
BITMAP
FFFFFFFF80
FFFFFFFF80
FFFFFFFF80
FFFFFFFF80
FFFFFFFF80
FFFFFFFF80
FFFFFFFF80
FFFFFFFF80
FFFF000000
FFFF000000
FFFF000000
FFFF000000
FFFF000000
FFFF000000
FFFF000000
FFFF000000
FFFF000000
FFFF000000
FFFF000000
FFFF000000
FFFF000000
FFFF000000
FFFF000000
FFFF000000
FFFF000000
FFFF000000
FFFF000000
FFFF000000
FFFF000000
FFFF000000
FFFF000000
FFFF000000
FFFF000000
FFFF000000
FFFF000000
FFFF000000
FFFF000000
FFFF000000
FFFF000000
FFFF000000
FFFF000000
FFFF000000
FFFF000000
FFFF000000
FFFF000000
FFFF000000
FFFF000000
FFFF000000
FFFF000000
FFFF000000
FFFFFFFF80
FFFFFFFF80
FFFFFFFF80
FFFFFFFF80
FFFFFFFF80
FFFFFFFF80
FFFFFFFF80
FFFFFFFF80
ENDCHAR
STARTCHAR 005C
ENCODING 92
SWIDTH 960 0
DWIDTH 64 0
BBX 40 41 8 9
BITMAP
FF00000000
FF00000000
FF00000000
FF00000000
FF00000000
FF00000000
FF00000000
FF00000000
00FF000000
00FF000000
00FF000000
00FF000000
00FF000000
00FF000000
00FF000000
00FF000000
0000FF0000
0000FF0000
0000FF0000
0000FF0000
0000FF0000
0000FF0000
0000FF0000
0000FF0000
000000FF00
000000FF00
000000FF00
000000FF00
000000FF00
000000FF00
000000FF00
000000FF00
000000FF00
00000000FF
00000000FF
00000000FF
00000000FF
00000000FF
00000000FF
00000000FF
00000000FF
ENDCHAR
STARTCHAR 005D
ENCODING 93
SWIDTH 975 0
DWIDTH 65 0
BBX 32 58 8 0
BITMAP
FFFFFFFF
FFFFFFFF
FFFFFFFF
FFFFFFFF
FFFFFFFF
FFFFFFFF
FFFFFFFF
FFFFFFFF
0000FFFF
0000FFFF
0000FFFF
0000FFFF
0000FFFF
0000FFFF
0000FFFF
0000FFFF
0000FFFF
0000FFFF
0000FFFF
0000FFFF
0000FFFF
0000FFFF
0000FFFF
0000FFFF
0000FFFF
0000FFFF
0000FFFF
0000FFFF
0000FFFF
0000FFFF
0000FFFF
0000FFFF
0000FFFF
0000FFFF
0000FFFF
0000FFFF
0000FFFF
0000FFFF
0000FFFF
0000FFFF
0000FFFF
0000FFFF
0000FFFF
0000FFFF
0000FFFF
0000FFFF
0000FFFF
0000FFFF
0000FFFF
0000FFFF
FFFFFFFF
FFFFFFFF
FFFFFFFF
FFFFFFFF
FFFFFFFF
FFFFFFFF
FFFFFFFF
FFFFFFFF
ENDCHAR
STARTCHAR 005E
ENCODING 94
SWIDTH 960 0
DWIDTH 64 0
BBX 40 25 8 33
BITMAP
0000FF0000
0000FF0000
0000FF0000
0000FF0000
0000FF0000
0000FF0000
0000FF0000
0000FF0000
00FF00FF00
00FF00FF00
00FF00FF00
00FF00FF00
00FF00FF00
00FF00FF00
00FF00FF00
00FF00FF00
00FF00FF00
FF000000FF
FF000000FF
FF000000FF
FF000000FF
FF000000FF
FF000000FF
FF000000FF
FF000000FF
ENDCHAR
STARTCHAR 005F
ENCODING 95
SWIDTH 975 0
DWIDTH 65 0
BBX 41 8 8 -7
BITMAP
FFFFFFFFFF80
FFFFFFFFFF80
FFFFFFFFFF80
FFFFFFFFFF80
FFFFFFFFFF80
FFFFFFFFFF80
FFFFFFFFFF80
FFFFFFFFFF80
ENDCHAR
STARTCHAR 0060
ENCODING 96
SWIDTH 975 0
DWIDTH 65 0
BBX 16 33 24 24
BITMAP
FFFF
FFFF
FFFF
FFFF
FFFF
FFFF
FFFF
FFFF
FFFF
FFFF
FFFF
FFFF
FFFF
FFFF
FFFF
FFFF
FFFF
FF00
FF00
FF00
FF00
FF00
FF00
FF00
FF00
00FF
00FF
00FF
00FF
00FF
00FF
00FF
00FF
ENDCHAR
STARTCHAR 0061
ENCODING 97
SWIDTH 990 0
DWIDTH 66 0
BBX 57 58 0 0
BITMAP
0000FFFFFF800000
0000FFFFFF800000
0000FFFFFF800000
0000FFFFFF800000
0000FFFFFF800000
0000FFFFFF800000
0000FFFFFF800000
0000FFFFFF800000
00FFFF007FFF8000
00FFFF007FFF8000
00FFFF007FFF8000
00FFFF007FFF8000
00FFFF007FFF8000
00FFFF007FFF8000
00FFFF007FFF8000
00FFFF007FFF8000
00FFFF007FFF8000
FFFF0000007FFF80
FFFF0000007FFF80
FFFF0000007FFF80
FFFF0000007FFF80
FFFF0000007FFF80
FFFF0000007FFF80
FFFF0000007FFF80
FFFF0000007FFF80
FFFF0000007FFF80
FFFF0000007FFF80
FFFF0000007FFF80
FFFF0000007FFF80
FFFF0000007FFF80
FFFF0000007FFF80
FFFF0000007FFF80
FFFF0000007FFF80
FFFFFFFFFFFFFF80
FFFFFFFFFFFFFF80
FFFFFFFFFFFFFF80
FFFFFFFFFFFFFF80
FFFFFFFFFFFFFF80
FFFFFFFFFFFFFF80
FFFFFFFFFFFFFF80
FFFFFFFFFFFFFF80
FFFF0000007FFF80
FFFF0000007FFF80
FFFF0000007FFF80
FFFF0000007FFF80
FFFF0000007FFF80
FFFF0000007FFF80
FFFF0000007FFF80
FFFF0000007FFF80
FFFF0000007FFF80
FFFF0000007FFF80
FFFF0000007FFF80
FFFF0000007FFF80
FFFF0000007FFF80
FFFF0000007FFF80
FFFF0000007FFF80
FFFF0000007FFF80
FFFF0000007FFF80
ENDCHAR
STARTCHAR 0062
ENCODING 98
SWIDTH 990 0
DWIDTH 66 0
BBX 57 58 0 0
BITMAP
FFFFFFFFFFFF8000
FFFFFFFFFFFF8000
FFFFFFFFFFFF8000
FFFFFFFFFFFF8000
FFFFFFFFFFFF8000
FFFFFFFFFFFF8000
FFFFFFFFFFFF8000
FFFFFFFFFFFF8000
FFFF0000007FFF80
FFFF0000007FFF80
FFFF0000007FFF80
FFFF0000007FFF80
FFFF0000007FFF80
FFFF0000007FFF80
FFFF0000007FFF80
FFFF0000007FFF80
FFFF0000007FFF80
FFFF0000007FFF80
FFFF0000007FFF80
FFFF0000007FFF80
FFFF0000007FFF80
FFFF0000007FFF80
FFFF0000007FFF80
FFFF0000007FFF80
FFFF0000007FFF80
FFFFFFFFFFFF8000
FFFFFFFFFFFF8000
FFFFFFFFFFFF8000
FFFFFFFFFFFF8000
FFFFFFFFFFFF8000
FFFFFFFFFFFF8000
FFFFFFFFFFFF8000
FFFFFFFFFFFF8000
FFFF0000007FFF80
FFFF0000007FFF80
FFFF0000007FFF80
FFFF0000007FFF80
FFFF0000007FFF80
FFFF0000007FFF80
FFFF0000007FFF80
FFFF0000007FFF80
FFFF0000007FFF80
FFFF0000007FFF80
FFFF0000007FFF80
FFFF0000007FFF80
FFFF0000007FFF80
FFFF0000007FFF80
FFFF0000007FFF80
FFFF0000007FFF80
FFFF0000007FFF80
FFFFFFFFFFFF8000
FFFFFFFFFFFF8000
FFFFFFFFFFFF8000
FFFFFFFFFFFF8000
FFFFFFFFFFFF8000
FFFFFFFFFFFF8000
FFFFFFFFFFFF8000
FFFFFFFFFFFF8000
ENDCHAR
STARTCHAR 0063
ENCODING 99
SWIDTH 990 0
DWIDTH 66 0
BBX 57 58 0 0
BITMAP
0000FFFFFFFF8000
0000FFFFFFFF8000
0000FFFFFFFF8000
0000FFFFFFFF8000
0000FFFFFFFF8000
0000FFFFFFFF8000
0000FFFFFFFF8000
0000FFFFFFFF8000
00FFFF00007FFF80
00FFFF00007FFF80
00FFFF00007FFF80
00FFFF00007FFF80
00FFFF00007FFF80
00FFFF00007FFF80
00FFFF00007FFF80
00FFFF00007FFF80
FFFF000000000000
FFFF000000000000
FFFF000000000000
FFFF000000000000
FFFF000000000000
FFFF000000000000
FFFF000000000000
FFFF000000000000
FFFF000000000000
FFFF000000000000
FFFF000000000000
FFFF000000000000
FFFF000000000000
FFFF000000000000
FFFF000000000000
FFFF000000000000
FFFF000000000000
FFFF000000000000
FFFF000000000000
FFFF000000000000
FFFF000000000000
FFFF000000000000
FFFF000000000000
FFFF000000000000
FFFF000000000000
00FFFF00007FFF80
00FFFF00007FFF80
00FFFF00007FFF80
00FFFF00007FFF80
00FFFF00007FFF80
00FFFF00007FFF80
00FFFF00007FFF80
00FFFF00007FFF80
00FFFF00007FFF80
0000FFFFFFFF8000
0000FFFFFFFF8000
0000FFFFFFFF8000
0000FFFFFFFF8000
0000FFFFFFFF8000
0000FFFFFFFF8000
0000FFFFFFFF8000
0000FFFFFFFF8000
ENDCHAR
STARTCHAR 0064
ENCODING 100
SWIDTH 990 0
DWIDTH 66 0
BBX 57 58 0 0
BITMAP
FFFFFFFFFF800000
FFFFFFFFFF800000
FFFFFFFFFF800000
FFFFFFFFFF800000
FFFFFFFFFF800000
FFFFFFFFFF800000
FFFFFFFFFF800000
FFFFFFFFFF800000
FFFF00007FFF8000
FFFF00007FFF8000
FFFF00007FFF8000
FFFF00007FFF8000
FFFF00007FFF8000
FFFF00007FFF8000
FFFF00007FFF8000
FFFF00007FFF8000
FFFF00007FFF8000
FFFF0000007FFF80
FFFF0000007FFF80
FFFF0000007FFF80
FFFF0000007FFF80
FFFF0000007FFF80
FFFF0000007FFF80
FFFF0000007FFF80
FFFF0000007FFF80
FFFF0000007FFF80
FFFF0000007FFF80
FFFF0000007FFF80
FFFF0000007FFF80
FFFF0000007FFF80
FFFF0000007FFF80
FFFF0000007FFF80
FFFF0000007FFF80
FFFF0000007FFF80
FFFF0000007FFF80
FFFF0000007FFF80
FFFF0000007FFF80
FFFF0000007FFF80
FFFF0000007FFF80
FFFF0000007FFF80
FFFF0000007FFF80
FFFF0000007FFF80
FFFF00007FFF8000
FFFF00007FFF8000
FFFF00007FFF8000
FFFF00007FFF8000
FFFF00007FFF8000
FFFF00007FFF8000
FFFF00007FFF8000
FFFF00007FFF8000
FFFFFFFFFF800000
FFFFFFFFFF800000
FFFFFFFFFF800000
FFFFFFFFFF800000
FFFFFFFFFF800000
FFFFFFFFFF800000
FFFFFFFFFF800000
FFFFFFFFFF800000
ENDCHAR
STARTCHAR 0065
ENCODING 101
SWIDTH 975 0
DWIDTH 65 0
BBX 57 58 0 0
BITMAP
FFFFFFFFFFFFFF80
FFFFFFFFFFFFFF80
FFFFFFFFFFFFFF80
FFFFFFFFFFFFFF80
FFFFFFFFFFFFFF80
FFFFFFFFFFFFFF80
FFFFFFFFFFFFFF80
FFFFFFFFFFFFFF80
FFFF000000000000
FFFF000000000000
FFFF000000000000
FFFF000000000000
FFFF000000000000
FFFF000000000000
FFFF000000000000
FFFF000000000000
FFFF000000000000
FFFF000000000000
FFFF000000000000
FFFF000000000000
FFFF000000000000
FFFF000000000000
FFFF000000000000
FFFF000000000000
FFFF000000000000
FFFFFFFFFFFF8000
FFFFFFFFFFFF8000
FFFFFFFFFFFF8000
FFFFFFFFFFFF8000
FFFFFFFFFFFF8000
FFFFFFFFFFFF8000
FFFFFFFFFFFF8000
FFFFFFFFFFFF8000
FFFF000000000000
FFFF000000000000
FFFF000000000000
FFFF000000000000
FFFF000000000000
FFFF000000000000
FFFF000000000000
FFFF000000000000
FFFF000000000000
FFFF000000000000
FFFF000000000000
FFFF000000000000
FFFF000000000000
FFFF000000000000
FFFF000000000000
FFFF000000000000
FFFF000000000000
FFFFFFFFFFFFFF80
FFFFFFFFFFFFFF80
FFFFFFFFFFFFFF80
FFFFFFFFFFFFFF80
FFFFFFFFFFFFFF80
FFFFFFFFFFFFFF80
FFFFFFFFFFFFFF80
FFFFFFFFFFFFFF80
ENDCHAR
STARTCHAR 0066
ENCODING 102
SWIDTH 975 0
DWIDTH 65 0
BBX 57 58 0 0
BITMAP
FFFFFFFFFFFFFF80
FFFFFFFFFFFFFF80
FFFFFFFFFFFFFF80
FFFFFFFFFFFFFF80
FFFFFFFFFFFFFF80
FFFFFFFFFFFFFF80
FFFFFFFFFFFFFF80
FFFFFFFFFFFFFF80
FFFF000000000000
FFFF000000000000
FFFF000000000000
FFFF000000000000
FFFF000000000000
FFFF000000000000
FFFF000000000000
FFFF000000000000
FFFF000000000000
FFFF000000000000
FFFF000000000000
FFFF000000000000
FFFF000000000000
FFFF000000000000
FFFF000000000000
FFFF000000000000
FFFF000000000000
FFFFFFFFFFFF8000
FFFFFFFFFFFF8000
FFFFFFFFFFFF8000
FFFFFFFFFFFF8000
FFFFFFFFFFFF8000
FFFFFFFFFFFF8000
FFFFFFFFFFFF8000
FFFFFFFFFFFF8000
FFFF000000000000
FFFF000000000000
FFFF000000000000
FFFF000000000000
FFFF000000000000
FFFF000000000000
FFFF000000000000
FFFF000000000000
FFFF000000000000
FFFF000000000000
FFFF000000000000
FFFF000000000000
FFFF000000000000
FFFF000000000000
FFFF000000000000
FFFF000000000000
FFFF000000000000
FFFF000000000000
FFFF000000000000
FFFF000000000000
FFFF000000000000
FFFF000000000000
FFFF000000000000
FFFF000000000000
FFFF000000000000
ENDCHAR
STARTCHAR 0067
ENCODING 103
SWIDTH 990 0
DWIDTH 66 0
BBX 57 58 0 0
BITMAP
0000FFFFFFFFFF80
0000FFFFFFFFFF80
0000FFFFFFFFFF80
0000FFFFFFFFFF80
0000FFFFFFFFFF80
0000FFFFFFFFFF80
0000FFFFFFFFFF80
0000FFFFFFFFFF80
00FFFF0000000000
00FFFF0000000000
00FFFF0000000000
00FFFF0000000000
00FFFF0000000000
00FFFF0000000000
00FFFF0000000000
00FFFF0000000000
00FFFF0000000000
FFFF000000000000
FFFF000000000000
FFFF000000000000
FFFF000000000000
FFFF000000000000
FFFF000000000000
FFFF000000000000
FFFF000000000000
FFFF00007FFFFF80
FFFF00007FFFFF80
FFFF00007FFFFF80
FFFF00007FFFFF80
FFFF00007FFFFF80
FFFF00007FFFFF80
FFFF00007FFFFF80
FFFF00007FFFFF80
FFFF0000007FFF80
FFFF0000007FFF80
FFFF0000007FFF80
FFFF0000007FFF80
FFFF0000007FFF80
FFFF0000007FFF80
FFFF0000007FFF80
FFFF0000007FFF80
FFFF0000007FFF80
00FFFF00007FFF80
00FFFF00007FFF80
00FFFF00007FFF80
00FFFF00007FFF80
00FFFF00007FFF80
00FFFF00007FFF80
00FFFF00007FFF80
00FFFF00007FFF80
0000FFFFFFFFFF80
0000FFFFFFFFFF80
0000FFFFFFFFFF80
0000FFFFFFFFFF80
0000FFFFFFFFFF80
0000FFFFFFFFFF80
0000FFFFFFFFFF80
0000FFFFFFFFFF80
ENDCHAR
STARTCHAR 0068
ENCODING 104
SWIDTH 990 0
DWIDTH 66 0
BBX 57 58 0 0
BITMAP
FFFF0000007FFF80
FFFF0000007FFF80
FFFF0000007FFF80
FFFF0000007FFF80
FFFF0000007FFF80
FFFF0000007FFF80
FFFF0000007FFF80
FFFF0000007FFF80
FFFF0000007FFF80
FFFF0000007FFF80
FFFF0000007FFF80
FFFF0000007FFF80
FFFF0000007FFF80
FFFF0000007FFF80
FFFF0000007FFF80
FFFF0000007FFF80
FFFF0000007FFF80
FFFF0000007FFF80
FFFF0000007FFF80
FFFF0000007FFF80
FFFF0000007FFF80
FFFF0000007FFF80
FFFF0000007FFF80
FFFF0000007FFF80
FFFF0000007FFF80
FFFFFFFFFFFFFF80
FFFFFFFFFFFFFF80
FFFFFFFFFFFFFF80
FFFFFFFFFFFFFF80
FFFFFFFFFFFFFF80
FFFFFFFFFFFFFF80
FFFFFFFFFFFFFF80
FFFFFFFFFFFFFF80
FFFF0000007FFF80
FFFF0000007FFF80
FFFF0000007FFF80
FFFF0000007FFF80
FFFF0000007FFF80
FFFF0000007FFF80
FFFF0000007FFF80
FFFF0000007FFF80
FFFF0000007FFF80
FFFF0000007FFF80
FFFF0000007FFF80
FFFF0000007FFF80
FFFF0000007FFF80
FFFF0000007FFF80
FFFF0000007FFF80
FFFF0000007FFF80
FFFF0000007FFF80
FFFF0000007FFF80
FFFF0000007FFF80
FFFF0000007FFF80
FFFF0000007FFF80
FFFF0000007FFF80
FFFF0000007FFF80
FFFF0000007FFF80
FFFF0000007FFF80
ENDCHAR
STARTCHAR 0069
ENCODING 105
SWIDTH 975 0
DWIDTH 65 0
BBX 49 58 8 0
BITMAP
FFFFFFFFFFFF80
FFFFFFFFFFFF80
FFFFFFFFFFFF80
FFFFFFFFFFFF80
FFFFFFFFFFFF80
FFFFFFFFFFFF80
FFFFFFFFFFFF80
FFFFFFFFFFFF80
00007FFF800000
00007FFF800000
00007FFF800000
00007FFF800000
00007FFF800000
00007FFF800000
00007FFF800000
00007FFF800000
00007FFF800000
00007FFF800000
00007FFF800000
00007FFF800000
00007FFF800000
00007FFF800000
00007FFF800000
00007FFF800000
00007FFF800000
00007FFF800000
00007FFF800000
00007FFF800000
00007FFF800000
00007FFF800000
00007FFF800000
00007FFF800000
00007FFF800000
00007FFF800000
00007FFF800000
00007FFF800000
00007FFF800000
00007FFF800000
00007FFF800000
00007FFF800000
00007FFF800000
00007FFF800000
00007FFF800000
00007FFF800000
00007FFF800000
00007FFF800000
00007FFF800000
00007FFF800000
00007FFF800000
00007FFF800000
FFFFFFFFFFFF80
FFFFFFFFFFFF80
FFFFFFFFFFFF80
FFFFFFFFFFFF80
FFFFFFFFFFFF80
FFFFFFFFFFFF80
FFFFFFFFFFFF80
FFFFFFFFFFFF80
ENDCHAR
STARTCHAR 006A
ENCODING 106
SWIDTH 990 0
DWIDTH 66 0
BBX 57 58 0 0
BITMAP
00000000007FFF80
00000000007FFF80
00000000007FFF80
00000000007FFF80
00000000007FFF80
00000000007FFF80
00000000007FFF80
00000000007FFF80
00000000007FFF80
00000000007FFF80
00000000007FFF80
00000000007FFF80
00000000007FFF80
00000000007FFF80
00000000007FFF80
00000000007FFF80
00000000007FFF80
00000000007FFF80
00000000007FFF80
00000000007FFF80
00000000007FFF80
00000000007FFF80
00000000007FFF80
00000000007FFF80
00000000007FFF80
00000000007FFF80
00000000007FFF80
00000000007FFF80
00000000007FFF80
00000000007FFF80
00000000007FFF80
00000000007FFF80
00000000007FFF80
00000000007FFF80
00000000007FFF80
00000000007FFF80
00000000007FFF80
00000000007FFF80
00000000007FFF80
00000000007FFF80
00000000007FFF80
00000000007FFF80
FFFF0000007FFF80
FFFF0000007FFF80
FFFF0000007FFF80
FFFF0000007FFF80
FFFF0000007FFF80
FFFF0000007FFF80
FFFF0000007FFF80
FFFF0000007FFF80
00FFFFFFFFFF8000
00FFFFFFFFFF8000
00FFFFFFFFFF8000
00FFFFFFFFFF8000
00FFFFFFFFFF8000
00FFFFFFFFFF8000
00FFFFFFFFFF8000
00FFFFFFFFFF8000
ENDCHAR
STARTCHAR 006B
ENCODING 107
SWIDTH 990 0
DWIDTH 66 0
BBX 57 58 0 0
BITMAP
FFFF0000007FFF80
FFFF0000007FFF80
FFFF0000007FFF80
FFFF0000007FFF80
FFFF0000007FFF80
FFFF0000007FFF80
FFFF0000007FFF80
FFFF0000007FFF80
FFFF00007FFF8000
FFFF00007FFF8000
FFFF00007FFF8000
FFFF00007FFF8000
FFFF00007FFF8000
FFFF00007FFF8000
FFFF00007FFF8000
FFFF00007FFF8000
FFFF00007FFF8000
FFFF007FFF800000
FFFF007FFF800000
FFFF007FFF800000
FFFF007FFF800000
FFFF007FFF800000
FFFF007FFF800000
FFFF007FFF800000
FFFF007FFF800000
FFFFFFFF80000000
FFFFFFFF80000000
FFFFFFFF80000000
FFFFFFFF80000000
FFFFFFFF80000000
FFFFFFFF80000000
FFFFFFFF80000000
FFFFFFFF80000000
FFFFFFFFFF800000
FFFFFFFFFF800000
FFFFFFFFFF800000
FFFFFFFFFF800000
FFFFFFFFFF800000
FFFFFFFFFF800000
FFFFFFFFFF800000
FFFFFFFFFF800000
FFFFFFFFFF800000
FFFF007FFFFF8000
FFFF007FFFFF8000
FFFF007FFFFF8000
FFFF007FFFFF8000
FFFF007FFFFF8000
FFFF007FFFFF8000
FFFF007FFFFF8000
FFFF007FFFFF8000
FFFF00007FFFFF80
FFFF00007FFFFF80
FFFF00007FFFFF80
FFFF00007FFFFF80
FFFF00007FFFFF80
FFFF00007FFFFF80
FFFF00007FFFFF80
FFFF00007FFFFF80
ENDCHAR
STARTCHAR 006C
ENCODING 108
SWIDTH 975 0
DWIDTH 65 0
BBX 49 58 8 0
BITMAP
FFFF0000000000
FFFF0000000000
FFFF0000000000
FFFF0000000000
FFFF0000000000
FFFF0000000000
FFFF0000000000
FFFF0000000000
FFFF0000000000
FFFF0000000000
FFFF0000000000
FFFF0000000000
FFFF0000000000
FFFF0000000000
FFFF0000000000
FFFF0000000000
FFFF0000000000
FFFF0000000000
FFFF0000000000
FFFF0000000000
FFFF0000000000
FFFF0000000000
FFFF0000000000
FFFF0000000000
FFFF0000000000
FFFF0000000000
FFFF0000000000
FFFF0000000000
FFFF0000000000
FFFF0000000000
FFFF0000000000
FFFF0000000000
FFFF0000000000
FFFF0000000000
FFFF0000000000
FFFF0000000000
FFFF0000000000
FFFF0000000000
FFFF0000000000
FFFF0000000000
FFFF0000000000
FFFF0000000000
FFFF0000000000
FFFF0000000000
FFFF0000000000
FFFF0000000000
FFFF0000000000
FFFF0000000000
FFFF0000000000
FFFF0000000000
FFFFFFFFFFFF80
FFFFFFFFFFFF80
FFFFFFFFFFFF80
FFFFFFFFFFFF80
FFFFFFFFFFFF80
FFFFFFFFFFFF80
FFFFFFFFFFFF80
FFFFFFFFFFFF80
ENDCHAR
STARTCHAR 006D
ENCODING 109
SWIDTH 990 0
DWIDTH 66 0
BBX 57 58 0 0
BITMAP
FFFF0000007FFF80
FFFF0000007FFF80
FFFF0000007FFF80
FFFF0000007FFF80
FFFF0000007FFF80
FFFF0000007FFF80
FFFF0000007FFF80
FFFF0000007FFF80
FFFFFF807FFFFF80
FFFFFF807FFFFF80
FFFFFF807FFFFF80
FFFFFF807FFFFF80
FFFFFF807FFFFF80
FFFFFF807FFFFF80
FFFFFF807FFFFF80
FFFFFF807FFFFF80
FFFFFF807FFFFF80
FFFFFFFFFFFFFF80
FFFFFFFFFFFFFF80
FFFFFFFFFFFFFF80
FFFFFFFFFFFFFF80
FFFFFFFFFFFFFF80
FFFFFFFFFFFFFF80
FFFFFFFFFFFFFF80
FFFFFFFFFFFFFF80
FFFFFFFFFFFFFF80
FFFFFFFFFFFFFF80
FFFFFFFFFFFFFF80
FFFFFFFFFFFFFF80
FFFFFFFFFFFFFF80
FFFFFFFFFFFFFF80
FFFFFFFFFFFFFF80
FFFFFFFFFFFFFF80
FFFF007F807FFF80
FFFF007F807FFF80
FFFF007F807FFF80
FFFF007F807FFF80
FFFF007F807FFF80
FFFF007F807FFF80
FFFF007F807FFF80
FFFF007F807FFF80
FFFF007F807FFF80
FFFF0000007FFF80
FFFF0000007FFF80
FFFF0000007FFF80
FFFF0000007FFF80
FFFF0000007FFF80
FFFF0000007FFF80
FFFF0000007FFF80
FFFF0000007FFF80
FFFF0000007FFF80
FFFF0000007FFF80
FFFF0000007FFF80
FFFF0000007FFF80
FFFF0000007FFF80
FFFF0000007FFF80
FFFF0000007FFF80
FFFF0000007FFF80
ENDCHAR
STARTCHAR 006E
ENCODING 110
SWIDTH 990 0
DWIDTH 66 0
BBX 57 58 0 0
BITMAP
FFFF0000007FFF80
FFFF0000007FFF80
FFFF0000007FFF80
FFFF0000007FFF80
FFFF0000007FFF80
FFFF0000007FFF80
FFFF0000007FFF80
FFFF0000007FFF80
FFFFFF80007FFF80
FFFFFF80007FFF80
FFFFFF80007FFF80
FFFFFF80007FFF80
FFFFFF80007FFF80
FFFFFF80007FFF80
FFFFFF80007FFF80
FFFFFF80007FFF80
FFFFFF80007FFF80
FFFFFFFF807FFF80
FFFFFFFF807FFF80
FFFFFFFF807FFF80
FFFFFFFF807FFF80
FFFFFFFF807FFF80
FFFFFFFF807FFF80
FFFFFFFF807FFF80
FFFFFFFF807FFF80
FFFFFFFFFFFFFF80
FFFFFFFFFFFFFF80
FFFFFFFFFFFFFF80
FFFFFFFFFFFFFF80
FFFFFFFFFFFFFF80
FFFFFFFFFFFFFF80
FFFFFFFFFFFFFF80
FFFFFFFFFFFFFF80
FFFF00FFFFFFFF80
FFFF00FFFFFFFF80
FFFF00FFFFFFFF80
FFFF00FFFFFFFF80
FFFF00FFFFFFFF80
FFFF00FFFFFFFF80
FFFF00FFFFFFFF80
FFFF00FFFFFFFF80
FFFF00FFFFFFFF80
FFFF00007FFFFF80
FFFF00007FFFFF80
FFFF00007FFFFF80
FFFF00007FFFFF80
FFFF00007FFFFF80
FFFF00007FFFFF80
FFFF00007FFFFF80
FFFF00007FFFFF80
FFFF0000007FFF80
FFFF0000007FFF80
FFFF0000007FFF80
FFFF0000007FFF80
FFFF0000007FFF80
FFFF0000007FFF80
FFFF0000007FFF80
FFFF0000007FFF80
ENDCHAR
STARTCHAR 006F
ENCODING 111
SWIDTH 990 0
DWIDTH 66 0
BBX 57 58 0 0
BITMAP
00FFFFFFFFFF8000
00FFFFFFFFFF8000
00FFFFFFFFFF8000
00FFFFFFFFFF8000
00FFFFFFFFFF8000
00FFFFFFFFFF8000
00FFFFFFFFFF8000
00FFFFFFFFFF8000
FFFF0000007FFF80
FFFF0000007FFF80
FFFF0000007FFF80
FFFF0000007FFF80
FFFF0000007FFF80
FFFF0000007FFF80
FFFF0000007FFF80
FFFF0000007FFF80
FFFF0000007FFF80
FFFF0000007FFF80
FFFF0000007FFF80
FFFF0000007FFF80
FFFF0000007FFF80
FFFF0000007FFF80
FFFF0000007FFF80
FFFF0000007FFF80
FFFF0000007FFF80
FFFF0000007FFF80
FFFF0000007FFF80
FFFF0000007FFF80
FFFF0000007FFF80
FFFF0000007FFF80
FFFF0000007FFF80
FFFF0000007FFF80
FFFF0000007FFF80
FFFF0000007FFF80
FFFF0000007FFF80
FFFF0000007FFF80
FFFF0000007FFF80
FFFF0000007FFF80
FFFF0000007FFF80
FFFF0000007FFF80
FFFF0000007FFF80
FFFF0000007FFF80
FFFF0000007FFF80
FFFF0000007FFF80
FFFF0000007FFF80
FFFF0000007FFF80
FFFF0000007FFF80
FFFF0000007FFF80
FFFF0000007FFF80
FFFF0000007FFF80
00FFFFFFFFFF8000
00FFFFFFFFFF8000
00FFFFFFFFFF8000
00FFFFFFFFFF8000
00FFFFFFFFFF8000
00FFFFFFFFFF8000
00FFFFFFFFFF8000
00FFFFFFFFFF8000
ENDCHAR
STARTCHAR 0070
ENCODING 112
SWIDTH 990 0
DWIDTH 66 0
BBX 57 58 0 0
BITMAP
FFFFFFFFFFFF8000
FFFFFFFFFFFF8000
FFFFFFFFFFFF8000
FFFFFFFFFFFF8000
FFFFFFFFFFFF8000
FFFFFFFFFFFF8000
FFFFFFFFFFFF8000
FFFFFFFFFFFF8000
FFFF0000007FFF80
FFFF0000007FFF80
FFFF0000007FFF80
FFFF0000007FFF80
FFFF0000007FFF80
FFFF0000007FFF80
FFFF0000007FFF80
FFFF0000007FFF80
FFFF0000007FFF80
FFFF0000007FFF80
FFFF0000007FFF80
FFFF0000007FFF80
FFFF0000007FFF80
FFFF0000007FFF80
FFFF0000007FFF80
FFFF0000007FFF80
FFFF0000007FFF80
FFFF0000007FFF80
FFFF0000007FFF80
FFFF0000007FFF80
FFFF0000007FFF80
FFFF0000007FFF80
FFFF0000007FFF80
FFFF0000007FFF80
FFFF0000007FFF80
FFFFFFFFFFFF8000
FFFFFFFFFFFF8000
FFFFFFFFFFFF8000
FFFFFFFFFFFF8000
FFFFFFFFFFFF8000
FFFFFFFFFFFF8000
FFFFFFFFFFFF8000
FFFFFFFFFFFF8000
FFFF000000000000
FFFF000000000000
FFFF000000000000
FFFF000000000000
FFFF000000000000
FFFF000000000000
FFFF000000000000
FFFF000000000000
FFFF000000000000
FFFF000000000000
FFFF000000000000
FFFF000000000000
FFFF000000000000
FFFF000000000000
FFFF000000000000
FFFF000000000000
FFFF000000000000
ENDCHAR
STARTCHAR 0071
ENCODING 113
SWIDTH 975 0
DWIDTH 65 0
BBX 57 58 0 0
BITMAP
00FFFFFFFFFF8000
00FFFFFFFFFF8000
00FFFFFFFFFF8000
00FFFFFFFFFF8000
00FFFFFFFFFF8000
00FFFFFFFFFF8000
00FFFFFFFFFF8000
00FFFFFFFFFF8000
FFFF0000007FFF80
FFFF0000007FFF80
FFFF0000007FFF80
FFFF0000007FFF80
FFFF0000007FFF80
FFFF0000007FFF80
FFFF0000007FFF80
FFFF0000007FFF80
FFFF0000007FFF80
FFFF0000007FFF80
FFFF0000007FFF80
FFFF0000007FFF80
FFFF0000007FFF80
FFFF0000007FFF80
FFFF0000007FFF80
FFFF0000007FFF80
FFFF0000007FFF80
FFFF0000007FFF80
FFFF0000007FFF80
FFFF0000007FFF80
FFFF0000007FFF80
FFFF0000007FFF80
FFFF0000007FFF80
FFFF0000007FFF80
FFFF0000007FFF80
FFFF007FFFFFFF80
FFFF007FFFFFFF80
FFFF007FFFFFFF80
FFFF007FFFFFFF80
FFFF007FFFFFFF80
FFFF007FFFFFFF80
FFFF007FFFFFFF80
FFFF007FFFFFFF80
FFFF00007FFF8000
FFFF00007FFF8000
FFFF00007FFF8000
FFFF00007FFF8000
FFFF00007FFF8000
FFFF00007FFF8000
FFFF00007FFF8000
FFFF00007FFF8000
FFFF00007FFF8000
00FFFFFFFF807F80
00FFFFFFFF807F80
00FFFFFFFF807F80
00FFFFFFFF807F80
00FFFFFFFF807F80
00FFFFFFFF807F80
00FFFFFFFF807F80
00FFFFFFFF807F80
ENDCHAR
STARTCHAR 0072
ENCODING 114
SWIDTH 990 0
DWIDTH 66 0
BBX 57 58 0 0
BITMAP
FFFFFFFFFFFF8000
FFFFFFFFFFFF8000
FFFFFFFFFFFF8000
FFFFFFFFFFFF8000
FFFFFFFFFFFF8000
FFFFFFFFFFFF8000
FFFFFFFFFFFF8000
FFFFFFFFFFFF8000
FFFF0000007FFF80
FFFF0000007FFF80
FFFF0000007FFF80
FFFF0000007FFF80
FFFF0000007FFF80
FFFF0000007FFF80
FFFF0000007FFF80
FFFF0000007FFF80
FFFF0000007FFF80
FFFF0000007FFF80
FFFF0000007FFF80
FFFF0000007FFF80
FFFF0000007FFF80
FFFF0000007FFF80
FFFF0000007FFF80
FFFF0000007FFF80
FFFF0000007FFF80
FFFF0000FFFFFF80
FFFF0000FFFFFF80
FFFF0000FFFFFF80
FFFF0000FFFFFF80
FFFF0000FFFFFF80
FFFF0000FFFFFF80
FFFF0000FFFFFF80
FFFF0000FFFFFF80
FFFFFFFFFF800000
FFFFFFFFFF800000
FFFFFFFFFF800000
FFFFFFFFFF800000
FFFFFFFFFF800000
FFFFFFFFFF800000
FFFFFFFFFF800000
FFFFFFFFFF800000
FFFF00FFFFFF8000
FFFF00FFFFFF8000
FFFF00FFFFFF8000
FFFF00FFFFFF8000
FFFF00FFFFFF8000
FFFF00FFFFFF8000
FFFF00FFFFFF8000
FFFF00FFFFFF8000
FFFF00FFFFFF8000
FFFF0000FFFFFF80
FFFF0000FFFFFF80
FFFF0000FFFFFF80
FFFF0000FFFFFF80
FFFF0000FFFFFF80
FFFF0000FFFFFF80
FFFF0000FFFFFF80
FFFF0000FFFFFF80
ENDCHAR
STARTCHAR 0073
ENCODING 115
SWIDTH 990 0
DWIDTH 66 0
BBX 57 58 0 0
BITMAP
00FFFFFFFF800000
00FFFFFFFF800000
00FFFFFFFF800000
00FFFFFFFF800000
00FFFFFFFF800000
00FFFFFFFF800000
00FFFFFFFF800000
00FFFFFFFF800000
FFFF00007FFF8000
FFFF00007FFF8000
FFFF00007FFF8000
FFFF00007FFF8000
FFFF00007FFF8000
FFFF00007FFF8000
FFFF00007FFF8000
FFFF00007FFF8000
FFFF000000000000
FFFF000000000000
FFFF000000000000
FFFF000000000000
FFFF000000000000
FFFF000000000000
FFFF000000000000
FFFF000000000000
FFFF000000000000
00FFFFFFFFFF8000
00FFFFFFFFFF8000
00FFFFFFFFFF8000
00FFFFFFFFFF8000
00FFFFFFFFFF8000
00FFFFFFFFFF8000
00FFFFFFFFFF8000
00FFFFFFFFFF8000
00000000007FFF80
00000000007FFF80
00000000007FFF80
00000000007FFF80
00000000007FFF80
00000000007FFF80
00000000007FFF80
00000000007FFF80
FFFF0000007FFF80
FFFF0000007FFF80
FFFF0000007FFF80
FFFF0000007FFF80
FFFF0000007FFF80
FFFF0000007FFF80
FFFF0000007FFF80
FFFF0000007FFF80
FFFF0000007FFF80
00FFFFFFFFFF8000
00FFFFFFFFFF8000
00FFFFFFFFFF8000
00FFFFFFFFFF8000
00FFFFFFFFFF8000
00FFFFFFFFFF8000
00FFFFFFFFFF8000
00FFFFFFFFFF8000
ENDCHAR
STARTCHAR 0074
ENCODING 116
SWIDTH 975 0
DWIDTH 65 0
BBX 49 58 8 0
BITMAP
FFFFFFFFFFFF80
FFFFFFFFFFFF80
FFFFFFFFFFFF80
FFFFFFFFFFFF80
FFFFFFFFFFFF80
FFFFFFFFFFFF80
FFFFFFFFFFFF80
FFFFFFFFFFFF80
00007FFF800000
00007FFF800000
00007FFF800000
00007FFF800000
00007FFF800000
00007FFF800000
00007FFF800000
00007FFF800000
00007FFF800000
00007FFF800000
00007FFF800000
00007FFF800000
00007FFF800000
00007FFF800000
00007FFF800000
00007FFF800000
00007FFF800000
00007FFF800000
00007FFF800000
00007FFF800000
00007FFF800000
00007FFF800000
00007FFF800000
00007FFF800000
00007FFF800000
00007FFF800000
00007FFF800000
00007FFF800000
00007FFF800000
00007FFF800000
00007FFF800000
00007FFF800000
00007FFF800000
00007FFF800000
00007FFF800000
00007FFF800000
00007FFF800000
00007FFF800000
00007FFF800000
00007FFF800000
00007FFF800000
00007FFF800000
00007FFF800000
00007FFF800000
00007FFF800000
00007FFF800000
00007FFF800000
00007FFF800000
00007FFF800000
00007FFF800000
ENDCHAR
STARTCHAR 0075
ENCODING 117
SWIDTH 990 0
DWIDTH 66 0
BBX 57 58 0 0
BITMAP
FFFF0000007FFF80
FFFF0000007FFF80
FFFF0000007FFF80
FFFF0000007FFF80
FFFF0000007FFF80
FFFF0000007FFF80
FFFF0000007FFF80
FFFF0000007FFF80
FFFF0000007FFF80
FFFF0000007FFF80
FFFF0000007FFF80
FFFF0000007FFF80
FFFF0000007FFF80
FFFF0000007FFF80
FFFF0000007FFF80
FFFF0000007FFF80
FFFF0000007FFF80
FFFF0000007FFF80
FFFF0000007FFF80
FFFF0000007FFF80
FFFF0000007FFF80
FFFF0000007FFF80
FFFF0000007FFF80
FFFF0000007FFF80
FFFF0000007FFF80
FFFF0000007FFF80
FFFF0000007FFF80
FFFF0000007FFF80
FFFF0000007FFF80
FFFF0000007FFF80
FFFF0000007FFF80
FFFF0000007FFF80
FFFF0000007FFF80
FFFF0000007FFF80
FFFF0000007FFF80
FFFF0000007FFF80
FFFF0000007FFF80
FFFF0000007FFF80
FFFF0000007FFF80
FFFF0000007FFF80
FFFF0000007FFF80
FFFF0000007FFF80
FFFF0000007FFF80
FFFF0000007FFF80
FFFF0000007FFF80
FFFF0000007FFF80
FFFF0000007FFF80
FFFF0000007FFF80
FFFF0000007FFF80
FFFF0000007FFF80
00FFFFFFFFFF8000
00FFFFFFFFFF8000
00FFFFFFFFFF8000
00FFFFFFFFFF8000
00FFFFFFFFFF8000
00FFFFFFFFFF8000
00FFFFFFFFFF8000
00FFFFFFFFFF8000
ENDCHAR
STARTCHAR 0076
ENCODING 118
SWIDTH 990 0
DWIDTH 66 0
BBX 57 58 0 0
BITMAP
FFFF0000007FFF80
FFFF0000007FFF80
FFFF0000007FFF80
FFFF0000007FFF80
FFFF0000007FFF80
FFFF0000007FFF80
FFFF0000007FFF80
FFFF0000007FFF80
FFFF0000007FFF80
FFFF0000007FFF80
FFFF0000007FFF80
FFFF0000007FFF80
FFFF0000007FFF80
FFFF0000007FFF80
FFFF0000007FFF80
FFFF0000007FFF80
FFFF0000007FFF80
FFFF0000007FFF80
FFFF0000007FFF80
FFFF0000007FFF80
FFFF0000007FFF80
FFFF0000007FFF80
FFFF0000007FFF80
FFFF0000007FFF80
FFFF0000007FFF80
FFFFFF807FFFFF80
FFFFFF807FFFFF80
FFFFFF807FFFFF80
FFFFFF807FFFFF80
FFFFFF807FFFFF80
FFFFFF807FFFFF80
FFFFFF807FFFFF80
FFFFFF807FFFFF80
00FFFFFFFFFF8000
00FFFFFFFFFF8000
00FFFFFFFFFF8000
00FFFFFFFFFF8000
00FFFFFFFFFF8000
00FFFFFFFFFF8000
00FFFFFFFFFF8000
00FFFFFFFFFF8000
0000FFFFFF800000
0000FFFFFF800000
0000FFFFFF800000
0000FFFFFF800000
0000FFFFFF800000
0000FFFFFF800000
0000FFFFFF800000
0000FFFFFF800000
0000FFFFFF800000
0000007F80000000
0000007F80000000
0000007F80000000
0000007F80000000
0000007F80000000
0000007F80000000
0000007F80000000
0000007F80000000
ENDCHAR
STARTCHAR 0077
ENCODING 119
SWIDTH 990 0
DWIDTH 66 0
BBX 57 58 0 0
BITMAP
FFFF0000007FFF80
FFFF0000007FFF80
FFFF0000007FFF80
FFFF0000007FFF80
FFFF0000007FFF80
FFFF0000007FFF80
FFFF0000007FFF80
FFFF0000007FFF80
FFFF0000007FFF80
FFFF0000007FFF80
FFFF0000007FFF80
FFFF0000007FFF80
FFFF0000007FFF80
FFFF0000007FFF80
FFFF0000007FFF80
FFFF0000007FFF80
FFFF007F807FFF80
FFFF007F807FFF80
FFFF007F807FFF80
FFFF007F807FFF80
FFFF007F807FFF80
FFFF007F807FFF80
FFFF007F807FFF80
FFFF007F807FFF80
FFFF007F807FFF80
FFFFFFFFFFFFFF80
FFFFFFFFFFFFFF80
FFFFFFFFFFFFFF80
FFFFFFFFFFFFFF80
FFFFFFFFFFFFFF80
FFFFFFFFFFFFFF80
FFFFFFFFFFFFFF80
FFFFFFFFFFFFFF80
FFFFFFFFFFFFFF80
FFFFFFFFFFFFFF80
FFFFFFFFFFFFFF80
FFFFFFFFFFFFFF80
FFFFFFFFFFFFFF80
FFFFFFFFFFFFFF80
FFFFFFFFFFFFFF80
FFFFFFFFFFFFFF80
00FFFF807FFF8000
00FFFF807FFF8000
00FFFF807FFF8000
00FFFF807FFF8000
00FFFF807FFF8000
00FFFF807FFF8000
00FFFF807FFF8000
00FFFF807FFF8000
00FFFF807FFF8000
00FF0000007F8000
00FF0000007F8000
00FF0000007F8000
00FF0000007F8000
00FF0000007F8000
00FF0000007F8000
00FF0000007F8000
00FF0000007F8000
ENDCHAR
STARTCHAR 0078
ENCODING 120
SWIDTH 990 0
DWIDTH 66 0
BBX 57 58 0 0
BITMAP
FFFF0000007FFF80
FFFF0000007FFF80
FFFF0000007FFF80
FFFF0000007FFF80
FFFF0000007FFF80
FFFF0000007FFF80
FFFF0000007FFF80
FFFF0000007FFF80
FFFF0000007FFF80
FFFFFF807FFFFF80
FFFFFF807FFFFF80
FFFFFF807FFFFF80
FFFFFF807FFFFF80
FFFFFF807FFFFF80
FFFFFF807FFFFF80
FFFFFF807FFFFF80
FFFFFF807FFFFF80
00FFFFFFFFFF8000
00FFFFFFFFFF8000
00FFFFFFFFFF8000
00FFFFFFFFFF8000
00FFFFFFFFFF8000
00FFFFFFFFFF8000
00FFFFFFFFFF8000
00FFFFFFFFFF8000
0000FFFFFF800000
0000FFFFFF800000
0000FFFFFF800000
0000FFFFFF800000
0000FFFFFF800000
0000FFFFFF800000
0000FFFFFF800000
0000FFFFFF800000
00FFFFFFFFFF8000
00FFFFFFFFFF8000
00FFFFFFFFFF8000
00FFFFFFFFFF8000
00FFFFFFFFFF8000
00FFFFFFFFFF8000
00FFFFFFFFFF8000
00FFFFFFFFFF8000
FFFFFF807FFFFF80
FFFFFF807FFFFF80
FFFFFF807FFFFF80
FFFFFF807FFFFF80
FFFFFF807FFFFF80
FFFFFF807FFFFF80
FFFFFF807FFFFF80
FFFFFF807FFFFF80
FFFFFF807FFFFF80
FFFF0000007FFF80
FFFF0000007FFF80
FFFF0000007FFF80
FFFF0000007FFF80
FFFF0000007FFF80
FFFF0000007FFF80
FFFF0000007FFF80
FFFF0000007FFF80
ENDCHAR
STARTCHAR 0079
ENCODING 121
SWIDTH 975 0
DWIDTH 65 0
BBX 49 58 8 0
BITMAP
FFFF00007FFF80
FFFF00007FFF80
FFFF00007FFF80
FFFF00007FFF80
FFFF00007FFF80
FFFF00007FFF80
FFFF00007FFF80
FFFF00007FFF80
FFFF00007FFF80
FFFF00007FFF80
FFFF00007FFF80
FFFF00007FFF80
FFFF00007FFF80
FFFF00007FFF80
FFFF00007FFF80
FFFF00007FFF80
FFFF00007FFF80
00FF00007F8000
00FF00007F8000
00FF00007F8000
00FF00007F8000
00FF00007F8000
00FF00007F8000
00FF00007F8000
00FF00007F8000
00FFFFFFFF8000
00FFFFFFFF8000
00FFFFFFFF8000
00FFFFFFFF8000
00FFFFFFFF8000
00FFFFFFFF8000
00FFFFFFFF8000
00FFFFFFFF8000
00FFFFFFFF8000
0000FFFF800000
0000FFFF800000
0000FFFF800000
0000FFFF800000
0000FFFF800000
0000FFFF800000
0000FFFF800000
0000FFFF800000
0000FFFF800000
0000FFFF800000
0000FFFF800000
0000FFFF800000
0000FFFF800000
0000FFFF800000
0000FFFF800000
0000FFFF800000
0000FFFF800000
0000FFFF800000
0000FFFF800000
0000FFFF800000
0000FFFF800000
0000FFFF800000
0000FFFF800000
0000FFFF800000
ENDCHAR
STARTCHAR 007A
ENCODING 122
SWIDTH 990 0
DWIDTH 66 0
BBX 58 58 0 0
BITMAP
FFFFFFFFFFFFFFC0
FFFFFFFFFFFFFFC0
FFFFFFFFFFFFFFC0
FFFFFFFFFFFFFFC0
FFFFFFFFFFFFFFC0
FFFFFFFFFFFFFFC0
FFFFFFFFFFFFFFC0
FFFFFFFFFFFFFFC0
000000007FFFFFC0
000000007FFFFFC0
000000007FFFFFC0
000000007FFFFFC0
000000007FFFFFC0
000000007FFFFFC0
000000007FFFFFC0
000000007FFFFFC0
000000007FFFFFC0
0000007FFFFFC000
0000007FFFFFC000
0000007FFFFFC000
0000007FFFFFC000
0000007FFFFFC000
0000007FFFFFC000
0000007FFFFFC000
0000007FFFFFC000
0000FFFFFF800000
0000FFFFFF800000
0000FFFFFF800000
0000FFFFFF800000
0000FFFFFF800000
0000FFFFFF800000
0000FFFFFF800000
0000FFFFFF800000
00FFFFFF80000000
00FFFFFF80000000
00FFFFFF80000000
00FFFFFF80000000
00FFFFFF80000000
00FFFFFF80000000
00FFFFFF80000000
00FFFFFF80000000
00FFFFFF80000000
FFFFFF8000000000
FFFFFF8000000000
FFFFFF8000000000
FFFFFF8000000000
FFFFFF8000000000
FFFFFF8000000000
FFFFFF8000000000
FFFFFF8000000000
FFFFFFFFFFFFFFC0
FFFFFFFFFFFFFFC0
FFFFFFFFFFFFFFC0
FFFFFFFFFFFFFFC0
FFFFFFFFFFFFFFC0
FFFFFFFFFFFFFFC0
FFFFFFFFFFFFFFC0
FFFFFFFFFFFFFFC0
ENDCHAR
STARTCHAR 007B
ENCODING 123
SWIDTH 975 0
DWIDTH 65 0
BBX 24 58 16 0
BITMAP
0000FF
0000FF
0000FF
0000FF
0000FF
0000FF
0000FF
0000FF
00FF00
00FF00
00FF00
00FF00
00FF00
00FF00
00FF00
00FF00
00FF00
00FF00
00FF00
00FF00
00FF00
00FF00
00FF00
00FF00
00FF00
FF0000
FF0000
FF0000
FF0000
FF0000
FF0000
FF0000
FF0000
00FF00
00FF00
00FF00
00FF00
00FF00
00FF00
00FF00
00FF00
00FF00
00FF00
00FF00
00FF00
00FF00
00FF00
00FF00
00FF00
00FF00
0000FF
0000FF
0000FF
0000FF
0000FF
0000FF
0000FF
0000FF
ENDCHAR
STARTCHAR 007C
ENCODING 124
SWIDTH 975 0
DWIDTH 65 0
BBX 8 58 24 0
BITMAP
FF
FF
FF
FF
FF
FF
FF
FF
FF
FF
FF
FF
FF
FF
FF
FF
FF
FF
FF
FF
FF
FF
FF
FF
FF
00
00
00
00
00
00
00
00
FF
FF
FF
FF
FF
FF
FF
FF
FF
FF
FF
FF
FF
FF
FF
FF
FF
FF
FF
FF
FF
FF
FF
FF
FF
ENDCHAR
STARTCHAR 007D
ENCODING 125
SWIDTH 975 0
DWIDTH 65 0
BBX 24 58 16 0
BITMAP
FF0000
FF0000
FF0000
FF0000
FF0000
FF0000
FF0000
FF0000
00FF00
00FF00
00FF00
00FF00
00FF00
00FF00
00FF00
00FF00
00FF00
00FF00
00FF00
00FF00
00FF00
00FF00
00FF00
00FF00
00FF00
0000FF
0000FF
0000FF
0000FF
0000FF
0000FF
0000FF
0000FF
00FF00
00FF00
00FF00
00FF00
00FF00
00FF00
00FF00
00FF00
00FF00
00FF00
00FF00
00FF00
00FF00
00FF00
00FF00
00FF00
00FF00
FF0000
FF0000
FF0000
FF0000
FF0000
FF0000
FF0000
FF0000
ENDCHAR
STARTCHAR 007E
ENCODING 126
SWIDTH 990 0
DWIDTH 66 0
BBX 58 25 0 17
BITMAP
00FFFF8000000000
00FFFF8000000000
00FFFF8000000000
00FFFF8000000000
00FFFF8000000000
00FFFF8000000000
00FFFF8000000000
00FFFF8000000000
FF00007F80003FC0
FF00007F80003FC0
FF00007F80003FC0
FF00007F80003FC0
FF00007F80003FC0
FF00007F80003FC0
FF00007F80003FC0
FF00007F80003FC0
FF00007F80003FC0
000000007FFFC000
000000007FFFC000
000000007FFFC000
000000007FFFC000
000000007FFFC000
000000007FFFC000
000000007FFFC000
000000007FFFC000
ENDCHAR
STARTCHAR 00A0
ENCODING 160
SWIDTH 495 0
DWIDTH 33 0
BBX 0 0 0 0
BITMAP
ENDCHAR
STARTCHAR 00A1
ENCODING 161
SWIDTH 495 0
DWIDTH 33 0
BBX 0 0 0 0
BITMAP
ENDCHAR
STARTCHAR 00A2
ENCODING 162
SWIDTH 495 0
DWIDTH 33 0
BBX 0 0 0 0
BITMAP
ENDCHAR
STARTCHAR 00A3
ENCODING 163
SWIDTH 495 0
DWIDTH 33 0
BBX 0 0 0 0
BITMAP
ENDCHAR
STARTCHAR 00A4
ENCODING 164
SWIDTH 495 0
DWIDTH 33 0
BBX 0 0 0 0
BITMAP
ENDCHAR
STARTCHAR 00A5
ENCODING 165
SWIDTH 495 0
DWIDTH 33 0
BBX 0 0 0 0
BITMAP
ENDCHAR
STARTCHAR 00A6
ENCODING 166
SWIDTH 495 0
DWIDTH 33 0
BBX 0 0 0 0
BITMAP
ENDCHAR
STARTCHAR 00A7
ENCODING 167
SWIDTH 495 0
DWIDTH 33 0
BBX 0 0 0 0
BITMAP
ENDCHAR
STARTCHAR 00A8
ENCODING 168
SWIDTH 495 0
DWIDTH 33 0
BBX 0 0 0 0
BITMAP
ENDCHAR
STARTCHAR 00A9
ENCODING 169
SWIDTH 495 0
DWIDTH 33 0
BBX 0 0 0 0
BITMAP
ENDCHAR
STARTCHAR 00AA
ENCODING 170
SWIDTH 495 0
DWIDTH 33 0
BBX 0 0 0 0
BITMAP
ENDCHAR
STARTCHAR 00AB
ENCODING 171
SWIDTH 495 0
DWIDTH 33 0
BBX 0 0 0 0
BITMAP
ENDCHAR
STARTCHAR 00AC
ENCODING 172
SWIDTH 495 0
DWIDTH 33 0
BBX 0 0 0 0
BITMAP
ENDCHAR
STARTCHAR 00AD
ENCODING 173
SWIDTH 495 0
DWIDTH 33 0
BBX 0 0 0 0
BITMAP
ENDCHAR
STARTCHAR 00AE
ENCODING 174
SWIDTH 495 0
DWIDTH 33 0
BBX 0 0 0 0
BITMAP
ENDCHAR
STARTCHAR 00AF
ENCODING 175
SWIDTH 495 0
DWIDTH 33 0
BBX 0 0 0 0
BITMAP
ENDCHAR
STARTCHAR 00B0
ENCODING 176
SWIDTH 495 0
DWIDTH 33 0
BBX 0 0 0 0
BITMAP
ENDCHAR
STARTCHAR 00B1
ENCODING 177
SWIDTH 495 0
DWIDTH 33 0
BBX 0 0 0 0
BITMAP
ENDCHAR
STARTCHAR 00B2
ENCODING 178
SWIDTH 495 0
DWIDTH 33 0
BBX 0 0 0 0
BITMAP
ENDCHAR
STARTCHAR 00B3
ENCODING 179
SWIDTH 495 0
DWIDTH 33 0
BBX 0 0 0 0
BITMAP
ENDCHAR
STARTCHAR 00B4
ENCODING 180
SWIDTH 495 0
DWIDTH 33 0
BBX 0 0 0 0
BITMAP
ENDCHAR
STARTCHAR 00B5
ENCODING 181
SWIDTH 495 0
DWIDTH 33 0
BBX 0 0 0 0
BITMAP
ENDCHAR
STARTCHAR 00B6
ENCODING 182
SWIDTH 495 0
DWIDTH 33 0
BBX 0 0 0 0
BITMAP
ENDCHAR
STARTCHAR 00B7
ENCODING 183
SWIDTH 495 0
DWIDTH 33 0
BBX 0 0 0 0
BITMAP
ENDCHAR
STARTCHAR 00B8
ENCODING 184
SWIDTH 495 0
DWIDTH 33 0
BBX 0 0 0 0
BITMAP
ENDCHAR
STARTCHAR 00B9
ENCODING 185
SWIDTH 495 0
DWIDTH 33 0
BBX 0 0 0 0
BITMAP
ENDCHAR
STARTCHAR 00BA
ENCODING 186
SWIDTH 495 0
DWIDTH 33 0
BBX 0 0 0 0
BITMAP
ENDCHAR
STARTCHAR 00BB
ENCODING 187
SWIDTH 495 0
DWIDTH 33 0
BBX 0 0 0 0
BITMAP
ENDCHAR
STARTCHAR 00BC
ENCODING 188
SWIDTH 495 0
DWIDTH 33 0
BBX 0 0 0 0
BITMAP
ENDCHAR
STARTCHAR 00BD
ENCODING 189
SWIDTH 495 0
DWIDTH 33 0
BBX 0 0 0 0
BITMAP
ENDCHAR
STARTCHAR 00BE
ENCODING 190
SWIDTH 495 0
DWIDTH 33 0
BBX 0 0 0 0
BITMAP
ENDCHAR
STARTCHAR 00BF
ENCODING 191
SWIDTH 495 0
DWIDTH 33 0
BBX 0 0 0 0
BITMAP
ENDCHAR
STARTCHAR 00C0
ENCODING 192
SWIDTH 495 0
DWIDTH 33 0
BBX 0 0 0 0
BITMAP
ENDCHAR
STARTCHAR 00C1
ENCODING 193
SWIDTH 495 0
DWIDTH 33 0
BBX 0 0 0 0
BITMAP
ENDCHAR
STARTCHAR 00C2
ENCODING 194
SWIDTH 495 0
DWIDTH 33 0
BBX 0 0 0 0
BITMAP
ENDCHAR
STARTCHAR 00C3
ENCODING 195
SWIDTH 495 0
DWIDTH 33 0
BBX 0 0 0 0
BITMAP
ENDCHAR
STARTCHAR 00C4
ENCODING 196
SWIDTH 495 0
DWIDTH 33 0
BBX 0 0 0 0
BITMAP
ENDCHAR
STARTCHAR 00C5
ENCODING 197
SWIDTH 495 0
DWIDTH 33 0
BBX 0 0 0 0
BITMAP
ENDCHAR
STARTCHAR 00C6
ENCODING 198
SWIDTH 495 0
DWIDTH 33 0
BBX 0 0 0 0
BITMAP
ENDCHAR
STARTCHAR 00C7
ENCODING 199
SWIDTH 495 0
DWIDTH 33 0
BBX 0 0 0 0
BITMAP
ENDCHAR
STARTCHAR 00C8
ENCODING 200
SWIDTH 495 0
DWIDTH 33 0
BBX 0 0 0 0
BITMAP
ENDCHAR
STARTCHAR 00C9
ENCODING 201
SWIDTH 495 0
DWIDTH 33 0
BBX 0 0 0 0
BITMAP
ENDCHAR
STARTCHAR 00CA
ENCODING 202
SWIDTH 495 0
DWIDTH 33 0
BBX 0 0 0 0
BITMAP
ENDCHAR
STARTCHAR 00CB
ENCODING 203
SWIDTH 495 0
DWIDTH 33 0
BBX 0 0 0 0
BITMAP
ENDCHAR
STARTCHAR 00CC
ENCODING 204
SWIDTH 495 0
DWIDTH 33 0
BBX 0 0 0 0
BITMAP
ENDCHAR
STARTCHAR 00CD
ENCODING 205
SWIDTH 495 0
DWIDTH 33 0
BBX 0 0 0 0
BITMAP
ENDCHAR
STARTCHAR 00CE
ENCODING 206
SWIDTH 495 0
DWIDTH 33 0
BBX 0 0 0 0
BITMAP
ENDCHAR
STARTCHAR 00CF
ENCODING 207
SWIDTH 495 0
DWIDTH 33 0
BBX 0 0 0 0
BITMAP
ENDCHAR
STARTCHAR 00D0
ENCODING 208
SWIDTH 495 0
DWIDTH 33 0
BBX 0 0 0 0
BITMAP
ENDCHAR
STARTCHAR 00D1
ENCODING 209
SWIDTH 495 0
DWIDTH 33 0
BBX 0 0 0 0
BITMAP
ENDCHAR
STARTCHAR 00D2
ENCODING 210
SWIDTH 495 0
DWIDTH 33 0
BBX 0 0 0 0
BITMAP
ENDCHAR
STARTCHAR 00D3
ENCODING 211
SWIDTH 495 0
DWIDTH 33 0
BBX 0 0 0 0
BITMAP
ENDCHAR
STARTCHAR 00D4
ENCODING 212
SWIDTH 495 0
DWIDTH 33 0
BBX 0 0 0 0
BITMAP
ENDCHAR
STARTCHAR 00D5
ENCODING 213
SWIDTH 495 0
DWIDTH 33 0
BBX 0 0 0 0
BITMAP
ENDCHAR
STARTCHAR 00D6
ENCODING 214
SWIDTH 495 0
DWIDTH 33 0
BBX 0 0 0 0
BITMAP
ENDCHAR
STARTCHAR 00D7
ENCODING 215
SWIDTH 495 0
DWIDTH 33 0
BBX 0 0 0 0
BITMAP
ENDCHAR
STARTCHAR 00D8
ENCODING 216
SWIDTH 495 0
DWIDTH 33 0
BBX 0 0 0 0
BITMAP
ENDCHAR
STARTCHAR 00D9
ENCODING 217
SWIDTH 495 0
DWIDTH 33 0
BBX 0 0 0 0
BITMAP
ENDCHAR
STARTCHAR 00DA
ENCODING 218
SWIDTH 495 0
DWIDTH 33 0
BBX 0 0 0 0
BITMAP
ENDCHAR
STARTCHAR 00DB
ENCODING 219
SWIDTH 495 0
DWIDTH 33 0
BBX 0 0 0 0
BITMAP
ENDCHAR
STARTCHAR 00DC
ENCODING 220
SWIDTH 495 0
DWIDTH 33 0
BBX 0 0 0 0
BITMAP
ENDCHAR
STARTCHAR 00DD
ENCODING 221
SWIDTH 495 0
DWIDTH 33 0
BBX 0 0 0 0
BITMAP
ENDCHAR
STARTCHAR 00DE
ENCODING 222
SWIDTH 495 0
DWIDTH 33 0
BBX 0 0 0 0
BITMAP
ENDCHAR
STARTCHAR 00DF
ENCODING 223
SWIDTH 495 0
DWIDTH 33 0
BBX 0 0 0 0
BITMAP
ENDCHAR
STARTCHAR 00E0
ENCODING 224
SWIDTH 495 0
DWIDTH 33 0
BBX 0 0 0 0
BITMAP
ENDCHAR
STARTCHAR 00E1
ENCODING 225
SWIDTH 495 0
DWIDTH 33 0
BBX 0 0 0 0
BITMAP
ENDCHAR
STARTCHAR 00E2
ENCODING 226
SWIDTH 495 0
DWIDTH 33 0
BBX 0 0 0 0
BITMAP
ENDCHAR
STARTCHAR 00E3
ENCODING 227
SWIDTH 495 0
DWIDTH 33 0
BBX 0 0 0 0
BITMAP
ENDCHAR
STARTCHAR 00E4
ENCODING 228
SWIDTH 495 0
DWIDTH 33 0
BBX 0 0 0 0
BITMAP
ENDCHAR
STARTCHAR 00E5
ENCODING 229
SWIDTH 495 0
DWIDTH 33 0
BBX 0 0 0 0
BITMAP
ENDCHAR
STARTCHAR 00E6
ENCODING 230
SWIDTH 495 0
DWIDTH 33 0
BBX 0 0 0 0
BITMAP
ENDCHAR
STARTCHAR 00E7
ENCODING 231
SWIDTH 495 0
DWIDTH 33 0
BBX 0 0 0 0
BITMAP
ENDCHAR
STARTCHAR 00E8
ENCODING 232
SWIDTH 495 0
DWIDTH 33 0
BBX 0 0 0 0
BITMAP
ENDCHAR
STARTCHAR 00E9
ENCODING 233
SWIDTH 495 0
DWIDTH 33 0
BBX 0 0 0 0
BITMAP
ENDCHAR
STARTCHAR 00EA
ENCODING 234
SWIDTH 495 0
DWIDTH 33 0
BBX 0 0 0 0
BITMAP
ENDCHAR
STARTCHAR 00EB
ENCODING 235
SWIDTH 495 0
DWIDTH 33 0
BBX 0 0 0 0
BITMAP
ENDCHAR
STARTCHAR 00EC
ENCODING 236
SWIDTH 495 0
DWIDTH 33 0
BBX 0 0 0 0
BITMAP
ENDCHAR
STARTCHAR 00ED
ENCODING 237
SWIDTH 495 0
DWIDTH 33 0
BBX 0 0 0 0
BITMAP
ENDCHAR
STARTCHAR 00EE
ENCODING 238
SWIDTH 495 0
DWIDTH 33 0
BBX 0 0 0 0
BITMAP
ENDCHAR
STARTCHAR 00EF
ENCODING 239
SWIDTH 495 0
DWIDTH 33 0
BBX 0 0 0 0
BITMAP
ENDCHAR
STARTCHAR 00F0
ENCODING 240
SWIDTH 495 0
DWIDTH 33 0
BBX 0 0 0 0
BITMAP
ENDCHAR
STARTCHAR 00F1
ENCODING 241
SWIDTH 495 0
DWIDTH 33 0
BBX 0 0 0 0
BITMAP
ENDCHAR
STARTCHAR 00F2
ENCODING 242
SWIDTH 495 0
DWIDTH 33 0
BBX 0 0 0 0
BITMAP
ENDCHAR
STARTCHAR 00F3
ENCODING 243
SWIDTH 495 0
DWIDTH 33 0
BBX 0 0 0 0
BITMAP
ENDCHAR
STARTCHAR 00F4
ENCODING 244
SWIDTH 495 0
DWIDTH 33 0
BBX 0 0 0 0
BITMAP
ENDCHAR
STARTCHAR 00F5
ENCODING 245
SWIDTH 495 0
DWIDTH 33 0
BBX 0 0 0 0
BITMAP
ENDCHAR
STARTCHAR 00F6
ENCODING 246
SWIDTH 495 0
DWIDTH 33 0
BBX 0 0 0 0
BITMAP
ENDCHAR
STARTCHAR 00F7
ENCODING 247
SWIDTH 495 0
DWIDTH 33 0
BBX 0 0 0 0
BITMAP
ENDCHAR
STARTCHAR 00F8
ENCODING 248
SWIDTH 495 0
DWIDTH 33 0
BBX 0 0 0 0
BITMAP
ENDCHAR
STARTCHAR 00F9
ENCODING 249
SWIDTH 495 0
DWIDTH 33 0
BBX 0 0 0 0
BITMAP
ENDCHAR
STARTCHAR 00FA
ENCODING 250
SWIDTH 495 0
DWIDTH 33 0
BBX 0 0 0 0
BITMAP
ENDCHAR
STARTCHAR 00FB
ENCODING 251
SWIDTH 495 0
DWIDTH 33 0
BBX 0 0 0 0
BITMAP
ENDCHAR
STARTCHAR 00FC
ENCODING 252
SWIDTH 495 0
DWIDTH 33 0
BBX 0 0 0 0
BITMAP
ENDCHAR
STARTCHAR 00FD
ENCODING 253
SWIDTH 495 0
DWIDTH 33 0
BBX 0 0 0 0
BITMAP
ENDCHAR
STARTCHAR 00FE
ENCODING 254
SWIDTH 495 0
DWIDTH 33 0
BBX 0 0 0 0
BITMAP
ENDCHAR
STARTCHAR 00FF
ENCODING 255
SWIDTH 495 0
DWIDTH 33 0
BBX 0 0 0 0
BITMAP
ENDCHAR
STARTCHAR 0152
ENCODING 338
SWIDTH 495 0
DWIDTH 33 0
BBX 0 0 0 0
BITMAP
ENDCHAR
STARTCHAR 0153
ENCODING 339
SWIDTH 495 0
DWIDTH 33 0
BBX 0 0 0 0
BITMAP
ENDCHAR
STARTCHAR 0160
ENCODING 352
SWIDTH 495 0
DWIDTH 33 0
BBX 0 0 0 0
BITMAP
ENDCHAR
STARTCHAR 0161
ENCODING 353
SWIDTH 495 0
DWIDTH 33 0
BBX 0 0 0 0
BITMAP
ENDCHAR
STARTCHAR 0178
ENCODING 376
SWIDTH 495 0
DWIDTH 33 0
BBX 0 0 0 0
BITMAP
ENDCHAR
STARTCHAR 017D
ENCODING 381
SWIDTH 495 0
DWIDTH 33 0
BBX 0 0 0 0
BITMAP
ENDCHAR
STARTCHAR 017E
ENCODING 382
SWIDTH 495 0
DWIDTH 33 0
BBX 0 0 0 0
BITMAP
ENDCHAR
STARTCHAR 0192
ENCODING 402
SWIDTH 495 0
DWIDTH 33 0
BBX 0 0 0 0
BITMAP
ENDCHAR
STARTCHAR 02C6
ENCODING 710
SWIDTH 495 0
DWIDTH 33 0
BBX 0 0 0 0
BITMAP
ENDCHAR
STARTCHAR 02DC
ENCODING 732
SWIDTH 495 0
DWIDTH 33 0
BBX 0 0 0 0
BITMAP
ENDCHAR
STARTCHAR 2013
ENCODING 8211
SWIDTH 495 0
DWIDTH 33 0
BBX 0 0 0 0
BITMAP
ENDCHAR
STARTCHAR 2014
ENCODING 8212
SWIDTH 495 0
DWIDTH 33 0
BBX 0 0 0 0
BITMAP
ENDCHAR
STARTCHAR 2018
ENCODING 8216
SWIDTH 495 0
DWIDTH 33 0
BBX 0 0 0 0
BITMAP
ENDCHAR
STARTCHAR 2019
ENCODING 8217
SWIDTH 495 0
DWIDTH 33 0
BBX 0 0 0 0
BITMAP
ENDCHAR
STARTCHAR 201A
ENCODING 8218
SWIDTH 495 0
DWIDTH 33 0
BBX 0 0 0 0
BITMAP
ENDCHAR
STARTCHAR 201C
ENCODING 8220
SWIDTH 495 0
DWIDTH 33 0
BBX 0 0 0 0
BITMAP
ENDCHAR
STARTCHAR 201D
ENCODING 8221
SWIDTH 495 0
DWIDTH 33 0
BBX 0 0 0 0
BITMAP
ENDCHAR
STARTCHAR 201E
ENCODING 8222
SWIDTH 495 0
DWIDTH 33 0
BBX 0 0 0 0
BITMAP
ENDCHAR
STARTCHAR 2020
ENCODING 8224
SWIDTH 495 0
DWIDTH 33 0
BBX 0 0 0 0
BITMAP
ENDCHAR
STARTCHAR 2021
ENCODING 8225
SWIDTH 495 0
DWIDTH 33 0
BBX 0 0 0 0
BITMAP
ENDCHAR
STARTCHAR 2022
ENCODING 8226
SWIDTH 495 0
DWIDTH 33 0
BBX 0 0 0 0
BITMAP
ENDCHAR
STARTCHAR 2026
ENCODING 8230
SWIDTH 495 0
DWIDTH 33 0
BBX 0 0 0 0
BITMAP
ENDCHAR
STARTCHAR 2030
ENCODING 8240
SWIDTH 495 0
DWIDTH 33 0
BBX 0 0 0 0
BITMAP
ENDCHAR
STARTCHAR 2039
ENCODING 8249
SWIDTH 495 0
DWIDTH 33 0
BBX 0 0 0 0
BITMAP
ENDCHAR
STARTCHAR 203A
ENCODING 8250
SWIDTH 495 0
DWIDTH 33 0
BBX 0 0 0 0
BITMAP
ENDCHAR
STARTCHAR 20AC
ENCODING 8364
SWIDTH 495 0
DWIDTH 33 0
BBX 0 0 0 0
BITMAP
ENDCHAR
STARTCHAR 2122
ENCODING 8482
SWIDTH 495 0
DWIDTH 33 0
BBX 0 0 0 0
BITMAP
ENDCHAR
STARTCHAR 2219
ENCODING 8729
SWIDTH 495 0
DWIDTH 33 0
BBX 0 0 0 0
BITMAP
ENDCHAR
ENDFONT
